<svg width="101" height="100" viewBox="0 0 101 100" fill="none" xmlns="http://www.w3.org/2000/svg">
<path d="M25.4618 72.0684C21.1143 72.0684 17.577 75.6056 17.577 79.9532C17.577 84.3007 21.1143 87.8379 25.4618 87.8379C29.8093 87.8379 33.3466 84.3007 33.3466 79.9532C33.3466 75.6056 29.8093 72.0684 25.4618 72.0684ZM25.4618 83.9314C23.2682 83.9314 21.4836 82.1468 21.4836 79.9532C21.4836 77.7596 23.2682 75.9749 25.4618 75.9749C27.6554 75.9749 29.44 77.7596 29.44 79.9532C29.44 82.1468 27.6554 83.9314 25.4618 83.9314Z" fill="#E7D1FA"/>
<path d="M34.6971 32.0243C30.7997 32.0243 27.6287 35.1953 27.6287 39.0934C27.6287 42.9908 30.7997 46.1618 34.6971 46.1618C38.5944 46.1618 41.7654 42.9908 41.7654 39.0934C41.7654 35.1953 38.5944 32.0243 34.6971 32.0243ZM34.6971 42.2553C32.9536 42.2553 31.5345 40.8368 31.5345 39.0934C31.5345 37.3492 32.9536 35.9308 34.6971 35.9308C36.4405 35.9308 37.8597 37.3492 37.8597 39.0934C37.8597 40.8368 36.4405 42.2553 34.6971 42.2553Z" fill="#E7D1FA"/>
<path d="M27.3319 63.5053C29.189 61.6482 30.2114 59.1792 30.2114 56.5522C30.2114 53.926 29.189 51.4569 27.3319 49.5998C25.4748 47.7427 23.005 46.7195 20.3788 46.7195C17.7525 46.7195 15.2835 47.7427 13.4264 49.5998C11.5693 51.4569 10.5461 53.926 10.5461 56.5522C10.5461 59.1792 11.5693 61.6482 13.4264 63.5053C15.2835 65.3625 17.7525 66.3856 20.3788 66.3856C23.0057 66.3856 25.4748 65.3625 27.3319 63.5053ZM14.4526 56.5522C14.4526 54.9697 15.0691 53.4812 16.1884 52.3618C17.3077 51.2425 18.7963 50.626 20.3788 50.626C21.962 50.626 23.4506 51.2425 24.5699 52.3618C25.6892 53.4812 26.3057 54.9697 26.3057 56.5522C26.3057 58.1354 25.6892 59.624 24.5699 60.7433C23.4506 61.8626 21.962 62.4791 20.3788 62.4791C18.7963 62.4791 17.3077 61.8626 16.1884 60.7433C15.0691 59.624 14.4526 58.1354 14.4526 56.5522Z" fill="#E7D1FA"/>
<path d="M55.9258 40.1898C53.2996 40.1898 50.8298 41.213 48.9726 43.0701C47.1155 44.9272 46.0931 47.3963 46.0931 50.0225C46.0931 52.6487 47.1155 55.1185 48.9726 56.9757C50.8298 58.8328 53.2996 59.8552 55.9258 59.8552C58.552 59.8552 61.0218 58.8328 62.8789 56.9757C64.736 55.1185 65.7585 52.6487 65.7585 50.0225C65.7585 47.3963 64.736 44.9272 62.8789 43.0701C61.021 41.213 58.552 40.1898 55.9258 40.1898ZM60.1161 54.2129C58.9968 55.3329 57.509 55.9494 55.9258 55.9494C54.3426 55.9494 52.854 55.3329 51.7347 54.2129C50.6154 53.0943 49.9989 51.6057 49.9989 50.0225C49.9989 48.4393 50.6154 46.9507 51.7347 45.8314C52.854 44.7121 54.3426 44.0956 55.9258 44.0956C57.509 44.0956 58.9968 44.7121 60.1161 45.8314C61.2354 46.9507 61.8519 48.4393 61.8519 50.0225C61.8519 51.6057 61.2354 53.0936 60.1161 54.2129Z" fill="#E7D1FA"/>
<path d="M98.2314 15.121L98.0475 14.802C95.8722 11.0352 95.1848 6.61895 96.1103 2.36909C96.2743 1.61373 95.9783 0.831661 95.3541 0.376155C94.7293 -0.0801141 93.8953 -0.124368 93.2254 0.261706L81.7019 6.915C75.8986 3.48458 69.594 1.29861 62.9529 0.423461C61.884 0.28307 60.902 1.03538 60.7616 2.10509C60.6205 3.17481 61.3735 4.15525 62.4425 4.29641C67.9788 5.02583 73.2625 6.74332 78.1807 9.40693C75.9474 11.4914 74.4314 14.1596 73.7355 17.033C67.025 13.463 59.534 12.0721 51.9399 13.0082C51.1388 13.1074 50.3689 12.668 50.0706 11.9408C49.0123 9.35962 46.2747 7.94503 43.5562 8.57755L41.3336 9.09486C40.8102 9.21694 40.2722 8.98881 39.9945 8.52796C39.7328 8.09229 39.8152 7.6818 39.8877 7.47503C39.9594 7.27208 40.1502 6.90508 40.6186 6.73264C43.4577 5.68887 46.4136 4.92282 49.403 4.45664C50.4689 4.28954 51.1975 3.29078 51.0312 2.22565C50.8649 1.15898 49.863 0.430327 48.8002 0.59666C45.5575 1.10329 42.3514 1.93418 39.2704 3.06646C37.8314 3.59522 36.7136 4.72979 36.2032 6.17795C35.692 7.63068 35.8538 9.22076 36.6473 10.5407C37.8001 12.4589 40.0395 13.4065 42.2194 12.8991L44.4412 12.3818C45.2828 12.1865 46.129 12.6237 46.4563 13.4226C47.4215 15.7749 49.8753 17.1986 52.4183 16.885C59.7423 15.9816 66.9609 17.5007 73.3121 21.276C73.4074 23.684 74.0667 26.1027 75.3531 28.3307C75.8383 29.1715 76.4091 29.9444 77.0484 30.6448L75.4111 36.7541C74.6961 35.9133 73.9499 35.0961 73.1724 34.3125C65.0802 26.1485 54.3288 21.6362 42.8985 21.6049C42.8588 21.6049 42.8206 21.6049 42.7802 21.6049C31.3964 21.6049 20.6687 26.0562 12.5627 34.1454C4.46732 42.224 0.00610874 52.9715 4.80238e-06 64.408C-0.00533615 75.8444 4.44443 86.5965 12.5306 94.6827C12.6138 94.7659 12.697 94.8483 12.7816 94.9314C16.1388 98.2352 20.5176 100 25.0597 100C26.5872 100 28.1338 99.8001 29.6659 99.3927C35.7431 97.7728 40.3821 93.1934 42.0744 87.1413C43.3982 82.4069 46.1923 78.3562 50.1553 75.4263C54.2731 72.3805 59.3516 70.8659 64.456 71.1627C65.0901 71.1993 65.7241 71.2024 66.3536 71.1734C64.4995 79.9768 63.7762 88.9679 64.2073 97.9804C64.2477 98.8288 64.8322 99.5536 65.6524 99.7734C65.8203 99.8184 65.9904 99.8398 66.1583 99.8398C66.8114 99.8398 67.4355 99.5117 67.801 98.9433C73.7188 89.7385 78.1548 79.712 80.987 69.1431L90.2772 34.4712C91.3553 34.1744 92.4029 33.7387 93.3971 33.165C96.4529 31.4009 98.6381 28.5527 99.5514 25.1444C100.464 21.7361 99.9954 18.1768 98.2314 15.121ZM82.9326 10.7147L91.8078 5.59044C91.7337 8.74618 92.3617 11.8813 93.6565 14.7799C91.0074 14.741 87.8509 15.5673 85.2155 18.4079C82.735 21.0815 79.31 20.0636 77.3124 19.0954C77.7786 15.7047 79.7456 12.5543 82.9326 10.7147ZM83.6666 44.0513L77.9129 42.5093L78.1571 41.5998C78.1594 41.5899 78.1624 41.58 78.1647 41.5708L80.3858 33.2817C81.3174 33.7967 82.3184 34.2019 83.3736 34.4842C84.2801 34.7276 85.1972 34.8703 86.1136 34.9198L83.6666 44.0513ZM64.6819 67.2631C58.6687 66.9159 52.6846 68.6975 47.8327 72.2851C43.1647 75.7369 39.8732 80.5101 38.3129 86.0891C36.9967 90.796 33.3885 94.3584 28.6603 95.6181C23.9244 96.8801 19.0122 95.5823 15.5215 92.1473C15.4452 92.0725 15.3697 91.997 15.2934 91.9207C7.94504 84.5731 3.90042 74.8022 3.90576 64.4102C3.9111 54.0175 7.96564 44.2512 15.3216 36.9097C22.6906 29.5568 32.4378 25.5106 42.781 25.5106H42.8885C53.2729 25.5389 63.043 29.6407 70.399 37.0616C71.7571 38.4319 73.0168 39.906 74.1521 41.4518L67.6873 65.5791C67.5454 66.111 67.4096 66.6443 67.276 67.1776C66.4253 67.2844 65.5555 67.3134 64.6819 67.2631ZM77.214 68.1321C75.0761 76.11 71.9898 83.7666 68.0108 90.9723C68.168 82.7427 69.3232 74.568 71.4603 66.5901L76.902 46.2823L82.6557 47.8243L77.214 68.1321ZM95.7784 24.1334C95.1352 26.5338 93.5955 28.5397 91.4438 29.7819C89.2914 31.024 86.785 31.3544 84.3846 30.7112C81.9842 30.068 79.9783 28.529 78.7354 26.3766C78.1823 25.4175 77.7863 24.4104 77.5345 23.3849C78.7202 23.7664 80.0127 24.0175 81.3326 24.0175C83.6544 24.0175 86.0556 23.2461 88.079 21.0647C90.8616 18.0646 94.2379 18.5811 95.6861 18.9962C96.198 20.6511 96.2377 22.419 95.7784 24.1334Z" fill="#E7D1FA"/>
<path d="M56.2043 3.90576C56.7178 3.90576 57.2221 3.69746 57.5853 3.33351C57.9485 2.97033 58.1568 2.46675 58.1568 1.95326C58.1568 1.43977 57.9485 0.935428 57.5853 0.572244C57.2221 0.20906 56.7178 0 56.2043 0C55.6908 0 55.1864 0.20906 54.8233 0.572244C54.4601 0.935428 54.251 1.43977 54.251 1.95326C54.251 2.46675 54.4601 2.97033 54.8233 3.33351C55.1864 3.69746 55.6908 3.90576 56.2043 3.90576Z" fill="#E7D1FA"/>
</svg>
