<svg width="122" height="100" viewBox="0 0 122 100" fill="none" xmlns="http://www.w3.org/2000/svg">
<path d="M114.762 0H7.14284C3.20428 0 0 3.20428 0 7.14284V92.8572C0 96.7957 3.20428 100 7.14284 100H114.762C118.701 100 121.905 96.7957 121.905 92.8572V7.1426C121.905 3.20404 118.701 0 114.762 0ZM7.14284 4.76189H114.762C116.075 4.76189 117.143 5.82999 117.143 7.14284V16.6673H4.76189V7.1426C4.76189 5.82999 5.82999 4.76189 7.14284 4.76189ZM114.762 95.2379H7.14284C5.82999 95.2379 4.76189 94.1698 4.76189 92.8569V21.429H117.143V92.8569C117.143 94.1698 116.075 95.2379 114.762 95.2379Z" fill="#25CED1"/>
<path d="M111.191 13.0954C112.506 13.0954 113.572 12.0295 113.572 10.7145C113.572 9.39946 112.506 8.33351 111.191 8.33351H111.19C109.875 8.33351 108.81 9.39946 108.81 10.7145C108.81 12.0295 109.876 13.0954 111.191 13.0954Z" fill="#25CED1"/>
<path d="M102.859 13.0954C104.174 13.0954 105.24 12.0295 105.24 10.7145C105.24 9.39946 104.174 8.33351 102.859 8.33351H102.857C101.542 8.33351 100.477 9.39946 100.477 10.7145C100.477 12.0295 101.544 13.0954 102.859 13.0954Z" fill="#25CED1"/>
<path d="M94.5267 13.0954C95.8417 13.0954 96.9076 12.0295 96.9076 10.7145C96.9076 9.39946 95.8417 8.33351 94.5267 8.33351H94.525C93.21 8.33351 92.1448 9.39946 92.1448 10.7145C92.1448 12.0295 93.2117 13.0954 94.5267 13.0954Z" fill="#25CED1"/>
<path d="M99.2413 34.3922L64.4594 69.1742C64.198 69.4356 64.001 69.7542 63.8841 70.1049L60.1222 81.3904C59.5141 83.2144 61.3075 85.0106 63.1339 84.402L74.4194 80.6399C74.7701 80.523 75.0887 80.3261 75.3501 80.0646L110.132 45.2829C113.135 42.2803 113.135 37.3948 110.132 34.3922C107.129 31.3898 102.244 31.39 99.2413 34.3922ZM76.6761 72.0044L72.5196 67.8482L94.9059 45.4622L99.062 49.6184L76.6761 72.0044ZM66.1458 78.3784L68.2241 72.1437L69.1525 71.2153L73.3089 75.3715L72.3806 76.2999L66.1458 78.3784ZM106.765 41.9158L102.429 46.2513L98.2732 42.0951L102.609 37.7598C103.755 36.6141 105.619 36.6141 106.765 37.7598C107.316 38.3105 107.619 39.0486 107.619 39.8379C107.619 40.6272 107.316 41.3648 106.765 41.9158Z" fill="#25CED1"/>
<path d="M11.905 36.9053H79.5246C80.8396 36.9053 81.9056 35.8393 81.9056 34.5243C81.9056 33.2093 80.8396 32.1434 79.5246 32.1434H11.905C10.59 32.1434 9.52406 33.2093 9.52406 34.5243C9.52406 35.8393 10.5903 36.9053 11.905 36.9053Z" fill="#25CED1"/>
<path d="M74.7627 44.0482C74.7627 42.7332 73.6968 41.6672 72.3818 41.6672H47.3829C46.0679 41.6672 45.002 42.7332 45.002 44.0482C45.002 45.3632 46.0679 46.4291 47.3829 46.4291H72.382C73.6968 46.4291 74.7627 45.3632 74.7627 44.0482Z" fill="#25CED1"/>
<path d="M67.6196 53.5717C67.6196 52.2567 66.5536 51.1908 65.2386 51.1908H22.6185C21.3035 51.1908 20.2376 52.2567 20.2376 53.5717C20.2376 54.8867 21.3035 55.9527 22.6185 55.9527H65.2386C66.5536 55.9527 67.6196 54.8867 67.6196 53.5717Z" fill="#25CED1"/>
<path d="M11.905 60.7146C10.59 60.7146 9.52403 61.7805 9.52403 63.0955C9.52403 64.4105 10.59 65.4765 11.905 65.4765H33.0967C34.4117 65.4765 35.4776 64.4105 35.4776 63.0955C35.4776 61.7805 34.4117 60.7146 33.0967 60.7146H11.905Z" fill="#25CED1"/>
<path d="M50.4769 70.2383H11.905C10.59 70.2383 9.52403 71.3043 9.52403 72.6193C9.52403 73.9343 10.59 75.0003 11.905 75.0003H50.4769C51.792 75.0003 52.8579 73.9343 52.8579 72.6193C52.8579 71.3043 51.792 70.2383 50.4769 70.2383Z" fill="#25CED1"/>
<path d="M43.3338 79.7621H11.905C10.59 79.7621 9.52403 80.8281 9.52403 82.1431C9.52403 83.4581 10.59 84.5241 11.905 84.5241H43.3338C44.6488 84.5241 45.7148 83.4581 45.7148 82.1431C45.7148 80.8281 44.6488 79.7621 43.3338 79.7621Z" fill="#25CED1"/>
<path d="M11.905 46.4291H33.0967C34.4117 46.4291 35.4777 45.3632 35.4777 44.0482C35.4777 42.7332 34.4117 41.6672 33.0967 41.6672H11.905C10.59 41.6672 9.52406 42.7332 9.52406 44.0482C9.52406 45.3632 10.5903 46.4291 11.905 46.4291Z" fill="#25CED1"/>
<path d="M11.905 55.9527C13.22 55.9527 14.2859 54.8867 14.2859 53.5717C14.2859 52.2567 13.22 51.1908 11.905 51.1908H11.9033C10.5883 51.1908 9.52331 52.2567 9.52331 53.5717C9.52331 54.8867 10.5902 55.9527 11.905 55.9527Z" fill="#25CED1"/>
</svg>
