<svg width="21" height="20" viewBox="0 0 21 20" fill="none" xmlns="http://www.w3.org/2000/svg">
<path d="M20.795 10.9624C20.6079 9.08076 19.7673 7.30686 18.4279 5.9674C17.2832 4.8228 15.8822 4.08725 14.408 3.76019V2.72623C15.0101 2.57643 15.4577 2.03142 15.4577 1.3836C15.4577 0.620669 14.837 0 14.0741 0H11.1441C10.3811 0 9.76047 0.620669 9.76047 1.3836C9.76047 2.03138 10.208 2.57639 10.8101 2.72623V3.76308C9.34043 4.09152 7.94405 4.82605 6.80265 5.96745C6.55287 6.21723 6.32254 6.47926 6.11171 6.75158C6.10149 6.75081 6.09128 6.75004 6.08086 6.75004H3.18095C2.95623 6.75004 2.774 6.93222 2.774 7.15698C2.774 7.38173 2.95623 7.56392 3.18095 7.56392H5.55798C5.25961 8.06344 5.01902 8.58803 4.8359 9.12805H0.406942C0.182229 9.12805 0 9.31023 0 9.53499C0 9.75974 0.182229 9.94193 0.406942 9.94193H4.60594C4.48866 10.4568 4.42135 10.9807 4.40397 11.5061H2.60443C2.37972 11.5061 2.19749 11.6883 2.19749 11.913C2.19749 12.1378 2.37972 12.32 2.60443 12.32H4.41695C4.4513 12.8467 4.53598 13.3707 4.67105 13.8841H2.03471C1.81 13.8841 1.62777 14.0663 1.62777 14.2911C1.62777 14.5158 1.81 14.698 2.03471 14.698H4.93076C5.32997 15.7541 5.95385 16.7439 6.80265 17.5927C8.14336 18.9334 9.9191 19.7742 11.8027 19.9603C12.0715 19.9869 12.3405 20 12.6092 20C14.1972 20 15.7649 19.5404 17.0952 18.6741C17.2836 18.5515 17.3368 18.2994 17.2142 18.1111C17.0915 17.9227 16.8394 17.8695 16.6511 17.9921C13.7391 19.8883 9.8393 19.4783 7.37815 17.0172C4.49041 14.1294 4.49041 9.43077 7.37815 6.54298C10.2659 3.65528 14.9645 3.65528 17.8523 6.54298C20.3102 9.00092 20.7224 12.8974 18.8325 15.808C18.7101 15.9965 18.7637 16.2485 18.9521 16.3709C19.1407 16.4933 19.3927 16.4397 19.515 16.2512C20.5248 14.6961 20.9794 12.8178 20.795 10.9624ZM10.5744 1.38365C10.5744 1.06949 10.8299 0.813926 11.1441 0.813926H14.0741C14.3882 0.813926 14.6438 1.06949 14.6438 1.38365C14.6438 1.6978 14.3882 1.95336 14.0741 1.95336H11.1441C10.8299 1.95336 10.5744 1.69776 10.5744 1.38365ZM11.624 3.62317V2.76725H13.5941V3.62171C12.9399 3.5439 12.2781 3.54439 11.624 3.62317Z" fill="#25CED1"/>
<path d="M18.1403 16.8978C18.0328 16.8978 17.9283 16.9413 17.8526 17.017C17.7765 17.0927 17.7333 17.1977 17.7333 17.3047C17.7333 17.4118 17.7765 17.5168 17.8526 17.5924C17.9283 17.6685 18.0329 17.7117 18.1403 17.7117C18.2473 17.7117 18.3519 17.6685 18.428 17.5924C18.5037 17.5168 18.5472 17.4118 18.5472 17.3047C18.5472 17.1977 18.5037 17.0927 18.428 17.017C18.3519 16.9413 18.2472 16.8978 18.1403 16.8978Z" fill="#25CED1"/>
<path d="M12.6153 5.46716C9.13435 5.46716 6.3024 8.29907 6.3024 11.78C6.3024 15.261 9.13435 18.0929 12.6153 18.0929C16.0962 18.0929 18.9281 15.261 18.9281 11.78C18.9281 8.29907 16.0962 5.46716 12.6153 5.46716ZM12.6153 17.279C9.58309 17.279 7.11628 14.8121 7.11628 11.78C7.11628 8.74789 9.58309 6.28104 12.6153 6.28104C15.6474 6.28104 18.1142 8.74789 18.1142 11.78C18.1142 14.8121 15.6474 17.279 12.6153 17.279Z" fill="#25CED1"/>
<path d="M15.1894 8.63036L13.1738 10.6459C13.0053 10.5626 12.8157 10.5155 12.6153 10.5155C12.4148 10.5155 12.2252 10.5626 12.0567 10.6459L11.1546 9.74384C10.9957 9.58493 10.7381 9.58493 10.5791 9.74384C10.4202 9.90275 10.4202 10.1604 10.5791 10.3193L11.4811 11.2214C11.3978 11.39 11.3507 11.5796 11.3507 11.78C11.3507 12.4772 11.918 13.0445 12.6153 13.0445C13.3126 13.0445 13.8798 12.4772 13.8798 11.78C13.8798 11.5796 13.8327 11.39 13.7494 11.2214L15.7649 9.20586C15.9238 9.04695 15.9238 8.78927 15.7649 8.63036C15.606 8.47145 15.3484 8.47145 15.1894 8.63036ZM12.6153 12.2307C12.3668 12.2307 12.1646 12.0285 12.1646 11.78C12.1646 11.5315 12.3668 11.3294 12.6153 11.3294C12.8637 11.3294 13.0659 11.5315 13.0659 11.78C13.0659 12.0285 12.8637 12.2307 12.6153 12.2307Z" fill="#25CED1"/>
<path d="M16.9662 11.378H16.5892C16.3645 11.378 16.1823 11.5602 16.1823 11.785C16.1823 12.0097 16.3645 12.1919 16.5892 12.1919H16.9662C17.1909 12.1919 17.3732 12.0097 17.3732 11.785C17.3732 11.5602 17.1909 11.378 16.9662 11.378Z" fill="#25CED1"/>
<path d="M8.64125 11.3681H8.26426C8.03955 11.3681 7.85733 11.5503 7.85733 11.775C7.85733 11.9998 8.03955 12.182 8.26426 12.182H8.64125C8.86596 12.182 9.04818 11.9998 9.04818 11.775C9.04818 11.5503 8.86596 11.3681 8.64125 11.3681Z" fill="#25CED1"/>
<path d="M12.6202 8.21294C12.8449 8.21294 13.0272 8.03076 13.0272 7.80601V7.42902C13.0272 7.20427 12.8449 7.02208 12.6202 7.02208C12.3955 7.02208 12.2133 7.20427 12.2133 7.42902V7.80601C12.2133 8.03076 12.3955 8.21294 12.6202 8.21294Z" fill="#25CED1"/>
<path d="M12.6103 15.3471C12.3856 15.3471 12.2033 15.5293 12.2033 15.754V16.131C12.2033 16.3557 12.3856 16.5379 12.6103 16.5379C12.835 16.5379 13.0172 16.3557 13.0172 16.131V15.754C13.0172 15.5293 12.835 15.3471 12.6103 15.3471Z" fill="#25CED1"/>
<path d="M0.406936 13.884C0.299912 13.884 0.194922 13.9275 0.119232 14.0032C0.0435423 14.0789 9.19566e-08 14.1839 9.19566e-08 14.2909C9.19566e-08 14.3984 0.0435016 14.5029 0.119232 14.5786C0.194963 14.6543 0.299912 14.6979 0.406936 14.6979C0.51396 14.6979 0.61895 14.6543 0.694599 14.5786C0.770289 14.5029 0.813872 14.3979 0.813872 14.2909C0.813872 14.1839 0.77033 14.0789 0.694599 14.0032C0.61895 13.9275 0.51396 13.884 0.406936 13.884Z" fill="#25CED1"/>
</svg>
