<svg width="122" height="100" viewBox="0 0 122 100" fill="none" xmlns="http://www.w3.org/2000/svg">
<path d="M118.971 0H2.37939C1.06563 0 0 1.06563 0 2.37939V97.6206C0 98.9344 1.06563 100 2.37939 100H91.6592C92.9729 100 94.0386 98.9344 94.0386 97.6206C94.0386 96.3069 92.9729 95.2412 91.6592 95.2412H4.75877V26.6149H116.592V95.2412H110.706C109.393 95.2412 108.327 96.3069 108.327 97.6206C108.327 98.9344 109.393 100 110.706 100H118.971C120.285 100 121.351 98.9344 121.351 97.6206V2.37939C121.351 1.06563 120.285 0 118.971 0ZM4.75877 21.8561V4.75877H116.592V21.8561H4.75877Z" fill="#A1A9FE"/>
<path d="M22.145 12.3978C21.7533 11.4488 20.759 10.8443 19.736 10.9378C18.7694 11.0257 17.938 11.7118 17.6649 12.6422C17.3862 13.5977 17.7537 14.6624 18.5639 15.241C19.3564 15.8076 20.4396 15.828 21.2543 15.2947C22.1977 14.6781 22.5755 13.4394 22.145 12.3978Z" fill="#A1A9FE"/>
<path d="M12.6033 12.3978C12.2173 11.4627 11.247 10.8609 10.2388 10.935C9.25369 11.0063 8.401 11.696 8.12417 12.6422C7.85198 13.5708 8.19083 14.6059 8.95927 15.1947C9.75919 15.8067 10.8896 15.8447 11.7284 15.2855C12.6598 14.6652 13.0311 13.432 12.6033 12.3978Z" fill="#A1A9FE"/>
<path d="M31.8245 12.8422C31.6264 11.8636 30.82 11.0979 29.8312 10.9535C28.8378 10.8082 27.8323 11.3275 27.3768 12.2201C26.9232 13.107 27.075 14.2032 27.7546 14.9327C28.424 15.6503 29.497 15.878 30.4025 15.5049C31.4329 15.0799 32.0467 13.9365 31.8245 12.8422Z" fill="#A1A9FE"/>
<path d="M71.6751 76.8533C72.1306 77.2681 72.7037 77.4727 73.2749 77.4727C73.9221 77.4727 74.5665 77.2107 75.0359 76.695L87.9216 62.5288C88.7345 61.6354 88.7484 60.2735 87.9531 59.3634L75.583 45.1972C74.7183 44.2075 73.2157 44.1057 72.226 44.9704C71.2363 45.8342 71.1344 47.3378 71.9991 48.3275L82.974 60.8956L71.5159 73.4925C70.6317 74.4646 70.7021 75.9691 71.6751 76.8533Z" fill="#A1A9FE"/>
<path d="M49.6755 45.0019C48.7043 44.1177 47.1989 44.189 46.3147 45.1611L33.429 59.3273C32.6161 60.2207 32.6022 61.5826 33.3975 62.4936L45.7676 76.6589C46.2379 77.1977 46.8971 77.4727 47.56 77.4727C48.1155 77.4727 48.6737 77.2801 49.1246 76.8857C50.1143 76.021 50.2162 74.5183 49.3515 73.5286L38.3766 60.9605L49.8347 48.3636C50.7189 47.3915 50.6485 45.887 49.6755 45.0019Z" fill="#A1A9FE"/>
<path d="M63.263 45.937L52.79 74.2684C52.3345 75.5016 52.9641 76.8699 54.1963 77.3255C54.4685 77.4264 54.7472 77.4736 55.0212 77.4736C55.9887 77.4736 56.8988 76.8792 57.2534 75.9191L67.7274 47.5877C68.1829 46.3545 67.5533 44.9862 66.3201 44.5306C65.0878 44.0751 63.7194 44.7047 63.263 45.937Z" fill="#A1A9FE"/>
<path d="M103.362 96.6929C102.976 95.7578 102.006 95.157 100.995 95.2301C99.9935 95.3033 99.1297 96.0208 98.8677 96.9883C98.6113 97.9317 98.9834 98.9714 99.7806 99.538C100.587 100.111 101.682 100.126 102.503 99.5723C103.427 98.9464 103.787 97.7215 103.362 96.6929Z" fill="#A1A9FE"/>
</svg>
