<svg width="89" height="100" viewBox="0 0 89 100" fill="none" xmlns="http://www.w3.org/2000/svg">
<path d="M88.7742 34.3031V18.6654C88.7742 16.1607 87.5127 13.8623 85.3998 12.517L78.7205 8.26504V1.95312C78.7205 0.874414 77.8459 0 76.7674 0H53.9299C52.8514 0 51.9768 0.874414 51.9768 1.95312C51.9768 3.03184 52.8514 3.90625 53.9299 3.90625H74.8143V75.9713H15.7217V3.90625H36.7762C37.8547 3.90625 38.7293 3.03184 38.7293 1.95312C38.7293 0.874414 37.8547 0 36.7762 0H12.0125C4.51055 0 -0.00429381 6.30039 3.06432e-06 13.2744C0.00137025 16.1014 0.0218777 81.6045 0.00605741 87.3166C-0.0173801 94.0908 4.96953 100 12.0135 100H76.7678C77.8463 100 78.7209 99.1256 78.7209 98.0469L78.7203 73.8033L85.3994 69.5516C87.5125 68.2055 88.774 65.9068 88.774 63.4023V47.7656C88.774 45.2611 87.5125 42.9623 85.3988 41.6158L84.4846 41.034L85.3996 40.4516C87.5127 39.1064 88.7742 36.808 88.7742 34.3031ZM11.6424 75.9803C8.79707 76.0691 6.02461 77.1934 3.92012 79.115C3.92403 68.0623 3.92168 16.1012 3.92012 13.2736C3.91739 8.49883 6.54317 4.04102 11.8154 3.91133V75.9734C11.7574 75.9742 11.7002 75.9785 11.6424 75.9803ZM12.0135 96.0938C7.55528 96.0938 3.84258 92.3199 3.91035 87.8645C3.97266 83.4607 7.60742 79.8779 12.0123 79.8779L74.8147 79.8777V86.3103H13.7686C12.69 86.3103 11.8154 87.1848 11.8154 88.2635C11.8154 89.3422 12.69 90.2166 13.7686 90.2166H74.8148V96.0938H12.0135ZM84.868 63.4023C84.868 64.5648 84.2822 65.632 83.3014 66.2566L78.7215 69.1721V44.7031L80.8482 43.35L83.3012 44.9107C84.2822 45.5357 84.868 46.6029 84.868 47.7654V63.4023ZM84.868 34.3031C84.868 35.4656 84.2826 36.5322 83.302 37.1562L78.7209 40.0725V12.8961L83.302 15.8123C84.2826 16.4365 84.868 17.5031 84.868 18.6654V34.3031Z" fill="#A1A9FE"/>
<path d="M25.6158 34.876L26.5481 32.4283H32.9568L33.8785 34.8705C34.2543 35.866 35.3986 36.3844 36.3955 36.0082C37.4049 35.6273 37.9141 34.5006 37.5334 33.4912L31.9182 18.6113C31.9111 18.5932 31.9041 18.5748 31.8967 18.5568C31.541 17.6934 30.7082 17.1359 29.7744 17.1359C29.7734 17.1359 29.7725 17.1359 29.7715 17.1359C28.8365 17.1371 28.0039 17.6971 27.65 18.5623C27.6441 18.577 27.6381 18.5916 27.6326 18.6066L21.9656 33.4857C21.5816 34.4938 22.0875 35.6221 23.0955 36.0061C24.1035 36.3902 25.2318 35.8842 25.6158 34.876ZM29.7674 23.9762L31.4828 28.5221H28.0359L29.7674 23.9762Z" fill="#A1A9FE"/>
<path d="M54.7684 35.1117C55.1098 35.7418 55.769 36.1342 56.4855 36.1342H66.5533C67.6318 36.1342 68.5064 35.2598 68.5064 34.1811C68.5064 33.1023 67.6318 32.2279 66.5533 32.2279H60.0893L67.9553 20.1555C68.3465 19.5551 68.3773 18.7887 68.0359 18.1586C67.6945 17.5285 67.0354 17.1361 66.3188 17.1361H56.7947C55.7162 17.1361 54.8416 18.0105 54.8416 19.0893C54.8416 20.168 55.7162 21.0424 56.7947 21.0424H62.715L54.849 33.1148C54.4578 33.7152 54.427 34.4816 54.7684 35.1117Z" fill="#A1A9FE"/>
<path d="M42.4764 28.5883H50.2441C51.3227 28.5883 52.1973 27.7139 52.1973 26.6352C52.1973 25.5564 51.3227 24.682 50.2441 24.682H42.4764C41.3979 24.682 40.5232 25.5564 40.5232 26.6352C40.5232 27.7139 41.3979 28.5883 42.4764 28.5883Z" fill="#A1A9FE"/>
<path d="M21.8375 54.3057C21.8375 59.1582 25.7854 63.1063 30.6381 63.1063H59.7059C64.5586 63.1063 68.5064 59.1584 68.5064 54.3057C68.5064 49.4529 64.5586 45.5051 59.7059 45.5051H30.6381C25.7854 45.5051 21.8375 49.4531 21.8375 54.3057ZM64.6002 54.3057C64.6002 57.0043 62.4047 59.2 59.7059 59.2H30.6381C27.9395 59.2 25.7438 57.0045 25.7438 54.3057C25.7438 51.6068 27.9393 49.4113 30.6381 49.4113H59.7059C62.4045 49.4113 64.6002 51.607 64.6002 54.3057Z" fill="#A1A9FE"/>
<path d="M43.6115 2.70117C43.9328 3.47187 44.7254 3.96035 45.5584 3.90059C46.3727 3.84219 47.0773 3.25859 47.2961 2.47402C47.76 0.809961 45.8926 -0.601562 44.4109 0.279102C43.5867 0.769141 43.25 1.81875 43.6115 2.70117Z" fill="#A1A9FE"/>
</svg>
