<svg width="108" height="100" viewBox="0 0 108 100" fill="none" xmlns="http://www.w3.org/2000/svg">
<path d="M107.025 41.4234L107.025 41.4232L93.2568 32.2953V1.7858C93.2568 0.799562 92.4573 0 91.471 0H16.3508C15.3645 0 14.565 0.799562 14.565 1.7858V32.2975L0.799086 41.4232L0.799324 41.4236C0.317872 41.7434 0 42.2901 0 42.9116V98.2142C0 99.2004 0.799562 100 1.7858 100H106.038C107.025 100 107.824 99.2004 107.824 98.2142V42.9116C107.824 42.2901 107.506 41.7434 107.025 41.4234ZM14.565 47.6687L8.96352 44.6974H14.565V47.6687ZM3.5716 45.8803L44.639 67.6646L3.5716 94.8867V45.8803ZM53.9114 65.8029L100.113 96.4284H7.71013L53.9114 65.8029ZM63.1844 67.6649L104.252 45.8803V94.8876L63.1844 67.6649ZM93.2568 44.6974H98.8609L93.2568 47.6699V44.6974ZM100.113 41.1258H93.2568V36.5803L100.113 41.1258ZM89.6852 3.5716V49.5645L59.7964 65.4191L54.8979 62.172C54.3 61.7756 53.5225 61.7756 52.9247 62.172L48.0268 65.4186L18.1366 49.5633V3.5716H89.6852ZM14.565 41.1258H7.7118L14.565 36.5827V41.1258Z" fill="#4F518C"/>
<path d="M53.9108 46.9643H68.1387C69.1249 46.9643 69.9245 46.1648 69.9245 45.1785C69.9245 44.1923 69.1249 43.3927 68.1387 43.3927H53.9108C47.0503 43.3927 41.4688 37.8113 41.4688 30.9507V30.4238C41.4688 23.5632 47.0503 17.9817 53.9108 17.9817C60.7714 17.9817 66.3529 23.5632 66.3529 30.4238V31.7412C66.3529 33.2263 65.1447 34.4347 63.6594 34.4347C62.1741 34.4347 60.9659 33.2265 60.9659 31.7412V29.2382C60.9659 24.9847 57.5055 21.5241 53.252 21.5241C48.9985 21.5241 45.5381 24.9845 45.5381 29.2382C45.5381 33.4918 48.9985 36.9522 53.252 36.9522C55.1971 36.9522 56.975 36.2271 58.3332 35.0349C59.439 36.8167 61.4124 38.006 63.6594 38.006C67.1139 38.006 69.9245 35.1957 69.9245 31.741V30.4235C69.9245 21.5936 62.7408 14.4099 53.9108 14.4099C45.0809 14.4099 37.8972 21.5936 37.8972 30.4235V30.9505C37.8972 39.7806 45.0809 46.9643 53.9108 46.9643ZM53.252 33.3806C50.9678 33.3806 49.1097 31.5224 49.1097 29.2382C49.1097 26.9541 50.9681 25.0957 53.252 25.0957C55.5359 25.0957 57.3943 26.9541 57.3943 29.2382C57.3943 31.5224 55.5362 33.3806 53.252 33.3806Z" fill="#4F518C"/>
</svg>
