<svg width="100" height="100" viewBox="0 0 100 100" fill="none" xmlns="http://www.w3.org/2000/svg">
<path d="M87.8906 0C87.4922 0 87.0986 0.0205078 86.71 0.0583984C86.5602 0.0216797 86.4047 0 86.2436 0H27.3438C20.4512 0 14.8438 5.60742 14.8438 12.5V20.3125C14.8438 21.3912 15.7184 22.2656 16.7969 22.2656C17.8754 22.2656 18.75 21.3912 18.75 20.3125V12.5C18.75 7.76133 22.6051 3.90625 27.3438 3.90625H78.9932C77.001 6.06523 75.7812 8.94707 75.7812 12.1094C75.7812 12.1754 75.7848 12.2404 75.7912 12.3047C75.7848 12.3689 75.7812 12.434 75.7812 12.5V25.8463C75.7812 26.925 76.6559 27.7994 77.7344 27.7994C78.8129 27.7994 79.6875 26.925 79.6875 25.8463V14.0625H98.0469C99.1254 14.0625 100 13.1881 100 12.1094C100 5.43223 94.5678 0 87.8906 0ZM79.9244 10.1562C80.8031 6.57324 84.0404 3.90625 87.8908 3.90625C91.7412 3.90625 94.9783 6.57324 95.857 10.1562H79.9244Z" fill="#E7D1FA"/>
<path d="M65.9893 10.5449H53.5787C52.5002 10.5449 51.6256 11.4193 51.6256 12.498C51.6256 13.5768 52.5002 14.4512 53.5787 14.4512H61.5223L39.3678 36.6057L26.3811 23.6189C25.6182 22.8563 24.3818 22.8564 23.6187 23.6189L6.08945 41.1484C5.32676 41.9111 5.32676 43.1479 6.08945 43.9107C6.4709 44.292 6.97051 44.4826 7.47051 44.4826C7.97051 44.4826 8.47012 44.292 8.85156 43.9105L25 27.7621L37.9867 40.7488C38.7496 41.5115 39.9859 41.5115 40.749 40.7488L64.0361 17.4617V24.9086C64.0361 25.9873 64.9107 26.8617 65.9893 26.8617C67.0678 26.8617 67.9424 25.9873 67.9424 24.9086V12.498C67.9424 11.4193 67.0678 10.5449 65.9893 10.5449Z" fill="#E7D1FA"/>
<path d="M3.33379 46.666C2.9707 46.3027 2.4668 46.0938 1.95312 46.0938C1.43945 46.0938 0.935547 46.3027 0.572266 46.666C0.208789 47.0293 0 47.5332 0 48.0469C0 48.5605 0.208789 49.0645 0.572266 49.4277C0.935742 49.791 1.43945 50 1.95312 50C2.4668 50 2.9707 49.791 3.33379 49.4277C3.69727 49.0645 3.90625 48.5605 3.90625 48.0469C3.90625 47.5332 3.69727 47.0293 3.33379 46.666Z" fill="#E7D1FA"/>
<path d="M89.0645 61.3316C89.0647 60.2529 88.19 59.3785 87.1115 59.3785H72.2678V44.5348C72.2678 43.4561 71.3932 42.5816 70.3146 42.5816C59.9758 42.5816 51.5646 50.9928 51.5646 61.3316C51.5646 71.6705 59.9758 80.0816 70.3146 80.0816C72.2156 80.0816 74.051 79.7963 75.7812 79.268V87.8906C75.7812 92.4139 72.1014 96.0938 67.5781 96.0938C63.0549 96.0938 59.375 92.4139 59.375 87.8906C59.375 87.8299 59.3713 87.7699 59.366 87.7107C59.3734 87.6414 59.3777 87.5713 59.3777 87.5C59.3777 86.4213 58.5031 85.5469 57.4246 85.5469H18.75V43.7557C18.75 42.677 17.8754 41.8025 16.7969 41.8025C15.7184 41.8025 14.8438 42.677 14.8438 43.7557V85.5469H6.25C5.17148 85.5469 4.29688 86.4213 4.29688 87.5C4.29688 94.3926 9.9043 100 16.7969 100H67.5781C74.2553 100 79.6875 94.5678 79.6875 87.8906V77.7311C79.6875 77.677 79.6838 77.6238 79.6793 77.5707C85.285 74.3254 89.0645 68.2617 89.0645 61.3316ZM16.7969 96.0938C12.7299 96.0938 9.31367 93.2539 8.42695 89.4531H55.5728C55.9023 91.9975 57.0221 94.2965 58.6805 96.0938H16.7969ZM70.3146 76.1754C62.1299 76.1754 55.4709 69.5166 55.4709 61.3316C55.4709 53.8086 61.0963 47.5748 68.3615 46.6158V61.3316C68.3615 62.4104 69.2361 63.2848 70.3146 63.2848H85.0305C84.0713 70.55 77.8375 76.1754 70.3146 76.1754Z" fill="#E7D1FA"/>
<path d="M76.9531 31.6463C75.8746 31.6463 75 32.5207 75 33.5994V54.6932C75 55.7719 75.8746 56.6463 76.9531 56.6463H98.0469C99.1254 56.6463 100 55.7719 100 54.6932C100 41.985 89.6611 31.6463 76.9531 31.6463ZM78.9062 52.74V35.6514C87.9047 36.5672 95.0791 43.7414 95.9949 52.74H78.9062Z" fill="#E7D1FA"/>
<path d="M41.2109 63.2812H24.4141C23.3355 63.2812 22.4609 64.1557 22.4609 65.2344C22.4609 66.3131 23.3355 67.1875 24.4141 67.1875H41.2109C42.2895 67.1875 43.1641 66.3131 43.1641 65.2344C43.1641 64.1557 42.2895 63.2812 41.2109 63.2812Z" fill="#E7D1FA"/>
<path d="M50.3064 73.2285C49.9434 72.8652 49.4395 72.6562 48.9258 72.6562C48.4121 72.6562 47.9082 72.8652 47.5449 73.2285C47.1816 73.5918 46.9727 74.0957 46.9727 74.6094C46.9727 75.123 47.1814 75.627 47.5449 75.9902C47.9084 76.3535 48.4121 76.5625 48.9258 76.5625C49.4395 76.5625 49.9434 76.3535 50.3064 75.9902C50.6697 75.627 50.8789 75.123 50.8789 74.6094C50.8789 74.0957 50.6699 73.5918 50.3064 73.2285Z" fill="#E7D1FA"/>
<path d="M41.2109 72.6562H24.4141C23.3355 72.6562 22.4609 73.5307 22.4609 74.6094C22.4609 75.6881 23.3355 76.5625 24.4141 76.5625H41.2109C42.2895 76.5625 43.1641 75.6881 43.1641 74.6094C43.1641 73.5307 42.2895 72.6562 41.2109 72.6562Z" fill="#E7D1FA"/>
<path d="M31.1365 53.9062H24.4141C23.3355 53.9062 22.4609 54.7807 22.4609 55.8594C22.4609 56.9381 23.3355 57.8125 24.4141 57.8125H31.1365C32.215 57.8125 33.0896 56.9381 33.0896 55.8594C33.0896 54.7807 32.215 53.9062 31.1365 53.9062Z" fill="#E7D1FA"/>
</svg>
