<svg width="92" height="100" viewBox="0 0 92 100" fill="none" xmlns="http://www.w3.org/2000/svg">
<path d="M87.7881 19.3217H77.9973V9.67617C77.9971 4.34082 73.6559 0 68.3197 0H28.841C23.502 0 19.1582 4.34082 19.1582 9.67617V33.5803C8.47519 34.2887 0 43.2031 0 54.0609C0 64.9217 8.47519 73.8385 19.158 74.5471V90.3238C19.158 95.6594 23.5018 100 28.8408 100H68.3197C73.6559 100 77.9971 95.6592 77.9971 90.3238V48.4238H87.7879C89.8906 48.4238 91.6014 46.7131 91.6014 44.6105V23.1352C91.6016 21.0324 89.8908 19.3217 87.7881 19.3217ZM36.5746 3.90625H60.5859V6.21055C60.5859 7.48418 59.5494 8.52051 58.2756 8.52051H38.8793C37.6084 8.52051 36.5744 7.48418 36.5744 6.21055L36.5746 3.90625ZM3.90625 54.0609C3.90625 44.8961 11.3637 37.4398 20.5299 37.4398C29.6992 37.4398 37.159 44.8961 37.159 54.0609C37.159 57.1625 36.2955 60.193 34.6619 62.8248C34.3865 63.2684 34.3002 63.8039 34.4225 64.3117L35.974 70.7604L28.7824 69.0312C28.6318 68.9951 28.4787 68.9771 28.326 68.9771C28.0447 68.9771 27.7646 69.0381 27.5061 69.1576C25.3109 70.173 22.9639 70.6879 20.5299 70.6879C11.3637 70.6875 3.90625 63.2289 3.90625 54.0609ZM47.5836 85.4418C46.5049 85.4418 45.6305 86.3162 45.6305 87.3949C45.6305 88.4736 46.5049 89.348 47.5836 89.348H74.0908V90.3236C74.0908 93.5053 71.502 96.0936 68.3197 96.0936H28.841C25.6559 96.0936 23.0645 93.5051 23.0645 90.3236V89.348H30.0426C31.1213 89.348 31.9957 88.4736 31.9957 87.3949C31.9957 86.3162 31.1213 85.4418 30.0426 85.4418H23.0645V74.4395C24.9395 74.2096 26.7621 73.7229 28.5117 72.9832L38.1629 75.3035C38.3143 75.3398 38.4674 75.3576 38.6193 75.3576C39.1313 75.3576 39.6301 75.1561 40.0006 74.7854C40.4812 74.3047 40.6773 73.6086 40.5184 72.9475L38.4059 64.1678C40.1482 61.0889 41.0654 57.6123 41.0654 54.0604C41.0654 43.5992 33.1963 34.9416 23.0645 33.6893V9.67617C23.0645 6.49453 25.6559 3.90625 28.841 3.90625H32.6686V6.21055C32.6686 9.63809 35.4549 12.4268 38.8797 12.4268H58.276C61.7039 12.4268 64.4926 9.63828 64.4926 6.21055V3.90625H68.3201C71.5023 3.90625 74.0912 6.49473 74.0912 9.67617V19.3217H52.9656C50.8629 19.3217 49.1521 21.0324 49.1521 23.135V44.6104C49.1521 46.7131 50.8629 48.4236 52.9656 48.4236H54.5826L56.8 54.3721C57.0205 54.9639 57.5137 55.4125 58.1236 55.5762C58.2906 55.6211 58.4609 55.643 58.6301 55.643C59.0781 55.643 59.5186 55.4887 59.8723 55.1971L68.0908 48.4236H74.091V85.4418H47.5836ZM87.6953 44.5176H67.3896C66.9363 44.5176 66.4973 44.6752 66.1475 44.9635L59.5029 50.4397L57.7693 45.7885C57.4846 45.0242 56.7549 44.5176 55.9393 44.5176H53.0584V23.2279H87.6953V44.5176Z" fill="#A1A9FE"/>
<path d="M80.2023 35.4051C81.2811 35.4051 82.1555 34.5223 82.1555 33.4437C82.1555 32.3652 81.2811 31.4906 80.2023 31.4906C79.1236 31.4906 78.2492 32.365 78.2492 33.4437V33.4604C78.2492 34.5389 79.1236 35.4051 80.2023 35.4051Z" fill="#A1A9FE"/>
<path d="M70.3797 31.4904C69.301 31.4904 68.4266 32.3648 68.4266 33.4436V33.4602C68.4266 34.5389 69.301 35.4051 70.3797 35.4051C71.4584 35.4051 72.3328 34.5223 72.3328 33.4437C72.3328 32.3652 71.4584 31.4904 70.3797 31.4904Z" fill="#A1A9FE"/>
<path d="M60.5514 31.4904C59.4727 31.4904 58.5982 32.3648 58.5982 33.4436V33.4602C58.5982 34.5389 59.4727 35.4051 60.5514 35.4051C61.6301 35.4051 62.5045 34.5223 62.5045 33.4437C62.5045 32.3652 61.6301 31.4904 60.5514 31.4904Z" fill="#A1A9FE"/>
<path d="M21.8859 65.05L29.5934 57.6148C29.6096 57.5992 29.6256 57.5832 29.6412 57.567C32.4932 54.6188 32.4932 49.8215 29.6445 46.8766C27.2994 44.4406 23.3299 44.3367 20.5307 46.5449C17.7371 44.335 13.7687 44.4381 11.4242 46.8732C8.57226 49.8215 8.57226 54.6188 11.4242 57.567C11.4396 57.583 11.4555 57.5988 11.4715 57.6143L19.1734 65.0494C19.552 65.4148 20.0408 65.5975 20.5299 65.5975C21.0187 65.5973 21.5076 65.4148 21.8859 65.05ZM14.2111 54.8297C12.8521 53.401 12.8592 51.0082 14.235 49.5857C15.3676 48.4094 17.2457 48.7842 18.3406 49.8102L18.4104 49.8752C18.9783 50.4049 19.5656 50.9525 20.5318 50.9525C21.5016 50.9525 22.1139 50.3779 22.6541 49.8709L22.7211 49.808C23.8158 48.7855 25.6982 48.4098 26.8334 49.5891C28.2059 51.008 28.2129 53.4006 26.8543 54.8293L20.5303 60.9299L14.2111 54.8297Z" fill="#A1A9FE"/>
<path d="M38.8131 85.4418C37.7344 85.4418 36.86 86.3162 36.86 87.3949C36.86 88.4736 37.7344 89.348 38.8131 89.348H38.8187C39.8975 89.348 40.7689 88.4736 40.7689 87.3949C40.7689 86.3162 39.8918 85.4418 38.8131 85.4418Z" fill="#A1A9FE"/>
</svg>
