<svg width="118" height="100" viewBox="0 0 118 100" fill="none" xmlns="http://www.w3.org/2000/svg">
<path d="M61 98C61 99.2837 60.3512 100 59.0698 100C57.7884 100 57 99.2837 57 98C57 96.7186 57.7186 96 59 96C60.2814 96 61 96.7186 61 98ZM18.5 41C17.2156 41 16 41.7156 16 43C16 44.2844 16.7156 45 18 45H24V69C24 70.2844 24.7156 71 26 71C27.2844 71 28 70.2844 28 69V45H33C34.2844 45 35 44.2844 35 43C35 41.7156 34.2844 41 33 41H18.5ZM99 23C104.386 23 108 26.6142 108 32C108 37.3858 104.386 41 99 41C93.6142 41 90 37.3858 90 32C90 26.6142 93.6142 23 99 23ZM94 32C94 34.8212 96.1788 37 99 37C101.821 37 104 34.8212 104 32C104 29.1788 101.891 26.9767 99.0698 26.9767C96.2486 26.9767 94 29.1788 94 32ZM92 100H70C68.6672 100 67 100 67 98C67 96 68.7614 96 70 96H91V90H73.0233C69.17 90 66.0465 86.8533 66.0465 83L66 78C66 74.1467 69.0435 71 72.8968 71H91V61L58.1395 60.9302C56.8551 60.9302 55.8139 59.8891 55.8139 58.6047L56 15C56 13.7156 56.7156 13 58 13H91V7C91 5.71558 89.2844 4 88 4H30C28.7156 4 28 5.69233 28 6.97674V30H48.8372C50.1216 30 51 30.7156 51 32V79C51 80.2844 50.2844 81 49 81H27.907V96H49C50.2386 96 52 96 52 98C52 100 50.3328 100 49 100H25.5814C24.297 100 24 99.2844 24 98V81H2C0.715582 81 0 80.1216 0 78.8372V32.3256C0 31.0412 1.04116 30 2.32558 30H24V6.97674C24 3.12349 26.1467 0 30 0H88C91.8533 0 95 3.14674 95 7L94.8837 13.0233H116C117.284 13.0233 118 13.7156 118 15V58C118 59.2844 117.284 60.9302 116 60.9302L95 61V71H101C104.853 71 108 74.1467 108 78V83C108 86.8533 104.853 90 101 90H95V97C95 98.2844 93.2844 100 92 100ZM47 34H25.5H4V77H47V34ZM101 75H73.0233C71.7409 75 70 76.7177 70 78V83C70 84.2823 71.7409 86.0465 73.0233 86.0465H101C102.282 86.0465 104 84.2823 104 83V78C104 76.7177 102.282 75 101 75ZM60 57H98L75.5 35C72.8284 32.5028 67.6714 32.5023 65 35L60 39.5V49V57ZM114 17H60V35L63 32.5C67.4528 28.3377 73.5477 28.3379 78 32.5L103 57H114V17Z" fill="#25CED1"/>
</svg>
