<svg width="112" height="100" viewBox="0 0 112 100" fill="none" xmlns="http://www.w3.org/2000/svg">
<path d="M55.8952 70.6336C66.0081 70.6336 74.2358 62.4061 74.2358 52.293V18.3406C74.2358 12.4321 71.3629 6.85087 66.5504 3.41092C65.569 2.70961 64.2055 2.93668 63.5046 3.91747C62.8033 4.89847 63.0299 6.26223 64.0109 6.96354C66.0105 8.39279 67.5694 10.3074 68.5751 12.4821H64.4105C63.2048 12.4821 62.2271 13.4596 62.2271 14.6655C62.2271 15.8714 63.2048 16.8489 64.4105 16.8489H69.7871C69.8404 17.3419 69.869 17.8395 69.869 18.3406V21.2157H64.4105C63.2048 21.2157 62.2271 22.1932 62.2271 23.3991C62.2271 24.605 63.2048 25.5825 64.4105 25.5825H69.869V29.9493H64.4105C63.2048 29.9493 62.2271 30.9269 62.2271 32.1328C62.2271 33.3386 63.2048 34.3162 64.4105 34.3162H69.869V38.683H41.9214V34.3162H47.3799C48.5856 34.3162 49.5633 33.3386 49.5633 32.1328C49.5633 30.9269 48.5856 29.9493 47.3799 29.9493H41.9214V25.5825H47.3799C48.5856 25.5825 49.5633 24.605 49.5633 23.3991C49.5633 22.1932 48.5856 21.2157 47.3799 21.2157H41.9214V18.3406C41.9214 17.8395 41.95 17.3419 42.0033 16.8489H47.3799C48.5856 16.8489 49.5633 15.8714 49.5633 14.6655C49.5633 13.4596 48.5856 12.4821 47.3799 12.4821H43.2144C44.2271 10.2921 45.8009 8.36659 47.8216 6.93362C48.8052 6.23603 49.0369 4.87314 48.3393 3.88952C47.6419 2.90611 46.279 2.67424 45.2954 3.37162C40.4483 6.80961 37.5546 12.4052 37.5546 18.3406V52.293C37.5546 62.4061 45.7823 70.6336 55.8952 70.6336ZM41.9214 43.0498H69.869V52.293C69.869 59.9983 63.6004 66.2668 55.8952 66.2668C48.19 66.2668 41.9214 59.9983 41.9214 52.293V43.0498Z" fill="#E7D1FA"/>
<path d="M80.786 50.1096C79.5803 50.1096 78.6026 51.0871 78.6026 52.293C78.6026 64.814 68.4162 75.0004 55.8952 75.0004C43.3742 75.0004 33.1878 64.814 33.1878 52.293C33.1878 51.0871 32.21 50.1096 31.0044 50.1096C29.7987 50.1096 28.821 51.0871 28.821 52.293C28.821 64.9638 37.5707 75.6277 49.345 78.5644V86.0467C43.1559 86.3969 38.2277 91.5415 38.2277 97.8166C38.2277 99.0225 39.2055 100 40.4111 100H71.3793C72.5849 100 73.5627 99.0225 73.5627 97.8166C73.5627 91.5413 68.6345 86.3969 62.4454 86.0467V78.5644C74.2197 75.6277 82.9694 64.9638 82.9694 52.293C82.9694 51.0871 81.9917 50.1096 80.786 50.1096ZM68.8683 95.6332H42.9221C43.8565 92.602 46.6841 90.393 50.0181 90.393H61.7723C65.1063 90.393 67.9338 92.602 68.8683 95.6332ZM58.0786 79.3672V86.0262H53.7118V79.3672H58.0786Z" fill="#E7D1FA"/>
<path d="M2.18341 16.9847C0.977729 16.9847 0 17.9622 0 19.1681V47.5891C0 48.795 0.977729 49.7725 2.18341 49.7725C3.38908 49.7725 4.36681 48.795 4.36681 47.5891V19.1681C4.36681 17.9622 3.38908 16.9847 2.18341 16.9847Z" fill="#E7D1FA"/>
<path d="M22.2707 16.9847C21.0651 16.9847 20.0873 17.9622 20.0873 19.1681V47.5891C20.0873 48.795 21.0651 49.7725 22.2707 49.7725C23.4764 49.7725 24.4541 48.795 24.4541 47.5891V19.1681C24.4541 17.9622 23.4764 16.9847 22.2707 16.9847Z" fill="#E7D1FA"/>
<path d="M12.2271 5.00306C11.0214 5.00306 10.0437 5.98057 10.0437 7.18646V59.5707C10.0437 60.7766 11.0214 61.7542 12.2271 61.7542C13.4328 61.7542 14.4105 60.7766 14.4105 59.5707V7.18646C14.4105 5.98057 13.4328 5.00306 12.2271 5.00306Z" fill="#E7D1FA"/>
<path d="M109.607 16.9847C108.401 16.9847 107.424 17.9622 107.424 19.1681V47.5891C107.424 48.795 108.401 49.7725 109.607 49.7725C110.813 49.7725 111.79 48.795 111.79 47.5891V19.1681C111.79 17.9622 110.813 16.9847 109.607 16.9847Z" fill="#E7D1FA"/>
<path d="M89.5196 16.9847C88.314 16.9847 87.3362 17.9622 87.3362 19.1681V47.5891C87.3362 48.795 88.314 49.7725 89.5196 49.7725C90.7253 49.7725 91.7031 48.795 91.7031 47.5891V19.1681C91.7031 17.9622 90.7253 16.9847 89.5196 16.9847Z" fill="#E7D1FA"/>
<path d="M99.5633 5.00306C98.3576 5.00306 97.3799 5.98057 97.3799 7.18646V59.5707C97.3799 60.7766 98.3576 61.7542 99.5633 61.7542C100.769 61.7542 101.747 60.7766 101.747 59.5707V7.18646C101.747 5.98057 100.769 5.00306 99.5633 5.00306Z" fill="#E7D1FA"/>
<path d="M55.8952 56.7336C56.4694 56.7336 57.0327 56.5 57.4386 56.0939C57.8448 55.6856 58.0786 55.1245 58.0786 54.5502C58.0786 53.976 57.845 53.4127 57.4386 53.0044C57.0327 52.5983 56.4694 52.3646 55.8952 52.3646C55.321 52.3646 54.7576 52.5983 54.3515 53.0044C53.9454 53.4127 53.7118 53.9738 53.7118 54.5502C53.7118 55.1245 53.9452 55.6856 54.3515 56.0939C54.7576 56.5 55.321 56.7336 55.8952 56.7336Z" fill="#E7D1FA"/>
<path d="M55.9236 4.36681C56.4978 4.36681 57.0611 4.13319 57.4673 3.72707C57.8731 3.32096 58.107 2.75764 58.107 2.18341C58.107 1.60917 57.8734 1.04585 57.4673 0.639738C57.0611 0.233625 56.4978 0 55.9236 0C55.3472 0 54.786 0.233625 54.3777 0.639738C53.9716 1.04585 53.7402 1.60917 53.7402 2.18341C53.7402 2.75764 53.9716 3.32096 54.3777 3.72707C54.786 4.13319 55.3472 4.36681 55.9236 4.36681Z" fill="#E7D1FA"/>
</svg>
