<svg width="108" height="115" viewBox="0 0 108 115" fill="none" xmlns="http://www.w3.org/2000/svg">
<path d="M95.2029 0H90.2637C88.0926 0 88.0926 3.36611 90.2637 3.36611H95.2029C100.304 3.36611 104.454 7.50103 104.454 12.5834V51.5342C104.454 56.6168 100.304 60.7517 95.2029 60.7517H89.6011C89.2315 60.7517 88.8722 60.8734 88.5784 61.098L78.2992 68.9608V62.4348C78.2992 61.5053 77.5459 60.7517 76.6162 60.7517H56.1323C54.4549 60.7517 52.8427 60.309 51.4209 59.4672V40.5739C51.4209 37.035 49.6184 33.9084 46.8813 32.0586V12.5834C46.8813 7.50103 51.0313 3.36611 56.1323 3.36611H79.7166C81.8875 3.36611 81.8875 0 79.7166 0H56.1323C49.1752 0 43.5152 5.64496 43.5152 12.5834V30.5793C42.7446 30.3953 41.9417 30.295 41.1154 30.295H10.3052C4.62301 30.295 0 34.9061 0 40.5739V44.2082C0 46.3791 3.36611 46.3791 3.36611 44.2082V40.5739C3.36611 36.7622 6.47886 33.6611 10.3052 33.6611H41.1157C44.942 33.6611 48.055 36.7622 48.055 40.5739V60.1373C48.0348 60.2859 48.0357 60.4355 48.055 60.583V71.2899C48.055 71.5015 48.0422 71.7122 48.0231 71.9218H44.5522C40.7277 71.9218 37.5393 74.6823 36.8782 78.3102C36.7251 78.3679 36.5781 78.4485 36.4419 78.5535L28.9142 84.3659V79.8858C28.9142 78.9563 28.1609 78.2028 27.2311 78.2028H10.3052C6.47886 78.2028 3.36611 75.1017 3.36611 71.2899V54.3065C3.36611 52.1356 0 52.1356 0 54.3065V71.2901C0 76.958 4.62301 81.5691 10.3052 81.5691H25.5483V87.7919C25.5483 89.1419 27.1876 89.9518 28.26 89.1242L36.7505 82.5686V101.503C36.7505 105.795 40.2506 109.286 44.5524 109.286H54.8808V113.213C54.8808 114.563 56.5201 115.374 57.5923 114.546L64.4044 109.286H66.4169C70.7188 109.286 74.2188 105.795 74.2188 101.503V98.5147C74.2188 96.3438 70.8527 96.3438 70.8527 98.5147V101.503C70.8527 103.939 68.8629 105.92 66.4169 105.92H63.8301C63.4579 105.92 63.0961 106.043 62.8017 106.271L58.2467 109.787V107.603C58.2467 106.673 57.4933 105.92 56.5636 105.92H44.5522C42.1064 105.92 40.1164 103.938 40.1164 101.503V79.7052C40.1164 77.2694 42.1062 75.2881 44.5522 75.2881H66.4169C68.8627 75.2881 70.8527 77.2697 70.8527 79.7052V87.9676C70.8527 90.1385 74.2188 90.1385 74.2188 87.9676V79.7054C74.2188 75.4136 70.7188 71.9223 66.4169 71.9223H51.4018C51.4146 71.712 51.4211 63.2112 51.4211 63.2112C52.9051 63.8079 54.4962 64.1181 56.1325 64.1181H74.9334V72.3673C74.9334 73.7139 76.5657 74.5247 77.639 73.7041L90.1713 64.1181H95.2032C102.16 64.1181 107.82 58.4731 107.82 51.5344V12.5834C107.82 5.64496 102.16 0 95.2029 0V0Z" fill="#4F518C"/>
<path d="M79.873 12.4347C77.736 11.8892 75.5583 13.5776 75.5583 15.7858C75.5583 18.1984 74.6791 20.5234 73.0838 22.3315L68.4466 27.5788C68.1464 27.1181 67.6275 26.8131 67.0367 26.8131H57.9841C57.0544 26.8131 56.301 27.5667 56.301 28.4962V48.8645C56.301 49.794 57.0544 50.5475 57.9841 50.5475H67.0367C67.7168 50.5475 68.3012 50.1434 68.5667 49.5631C70.3994 50.6829 72.5232 51.2883 74.684 51.2883H90.6824C93.1271 51.2883 95.1439 49.167 95.0292 46.7286C94.9783 45.6487 95.0339 31.1491 95.0339 30.8271C95.0339 28.4277 93.0818 26.4754 90.6874 26.4754L82.3679 26.4505L82.7124 25.6348C84.2866 21.9067 84.0274 17.5837 82.0199 14.0702C81.5513 13.2493 80.7886 12.6687 79.873 12.4347C80.7886 12.6687 78.957 12.2009 79.873 12.4347C80.7886 12.6687 77.7362 11.8892 79.873 12.4347ZM65.3536 47.1814H59.6671V30.1792H65.3536V47.1814ZM90.6824 29.8413C91.226 29.8413 91.668 30.2834 91.668 30.8269C91.668 31.1471 91.6647 32.0162 91.6602 33.1946C91.6353 39.7006 91.6187 45.8624 91.6667 46.8866C91.6842 47.2562 91.5045 47.5026 91.3958 47.6166C91.2078 47.8136 90.9544 47.922 90.6824 47.922H74.684C72.777 47.922 70.9106 47.2611 69.4282 46.0612L68.7197 45.4876V32.3528L75.607 24.5594C77.7463 22.1349 78.9244 19.019 78.9244 15.7855C78.9244 15.6904 79.0543 15.6657 79.0974 15.7398C80.5879 18.348 80.78 21.5573 79.6115 24.3249L78.2833 27.4709C78.064 27.9899 78.1192 28.5839 78.4296 29.0538C78.7404 29.5237 79.2655 29.8069 79.8285 29.8087L90.6824 29.8413Z" fill="#4F518C"/>
<path d="M14.4114 58.4574C13.4817 58.4574 12.7284 59.211 12.7284 60.1405C12.7284 61.07 13.4817 61.8236 14.4114 61.8236H19.3726L18.4458 67.429C18.2941 68.3459 18.9149 69.2124 19.8318 69.3641C19.9249 69.3796 20.0171 69.387 20.1082 69.387C20.917 69.387 21.6304 68.8024 21.7668 67.9782L22.7843 61.8238H26.8445L25.9177 67.4292C25.766 68.3462 26.3867 69.2126 27.3036 69.3643C27.3968 69.3798 27.489 69.3872 27.5801 69.3872C28.3889 69.3872 29.1023 68.8026 29.2387 67.9784L30.2562 61.824H37.0092C37.939 61.824 38.6923 61.0704 38.6923 60.141C38.6923 59.2115 37.939 58.4579 37.0092 58.4579H30.8127L31.4915 54.3521H37.0092C37.939 54.3521 38.6923 53.5986 38.6923 52.6691C38.6923 51.7396 37.939 50.986 37.0092 50.986H32.0481L32.9749 45.3806C33.1266 44.4637 32.5058 43.5972 31.5889 43.4455C30.6709 43.2934 29.8056 43.9145 29.6539 44.8315L28.6364 50.9858H24.5762L25.503 45.3804C25.6547 44.4634 25.034 43.597 24.1171 43.4453C23.1979 43.2931 22.3339 43.9143 22.182 44.8312L21.1645 50.9856H14.4114C13.4817 50.9856 12.7284 51.7392 12.7284 52.6686C12.7284 53.5981 13.4817 54.3517 14.4114 54.3517H20.608L19.9292 58.4574H14.4114ZM24.0199 54.3517H28.0801L27.4013 58.4574H23.3411L24.0199 54.3517Z" fill="#4F518C"/>
<path d="M55.4643 83.9723C54.1053 82.8534 52.2972 82.412 50.4836 82.8529C48.1594 83.4173 45.8141 85.59 45.8141 89.1714C45.8141 91.4004 46.6276 93.3352 48.301 95.0865C49.6678 96.5171 51.6404 97.8775 54.6964 99.4977C54.943 99.6285 55.2138 99.6938 55.4847 99.6938C55.7556 99.6938 56.0264 99.6285 56.273 99.4977C61.6045 96.6713 65.1551 93.8336 65.1551 89.1714C65.1551 85.5705 62.7265 83.42 60.3196 82.8862C58.5113 82.4849 56.7582 82.9108 55.4643 83.9723ZM61.7887 89.1714C61.7887 91.6861 60.1207 93.5457 55.4845 96.0979C50.8482 93.5455 49.18 91.6858 49.18 89.1714C49.18 87.3003 50.2634 86.3703 51.2775 86.1239C51.4644 86.0786 51.6646 86.053 51.8704 86.053C52.6332 86.053 53.4718 86.4053 53.9888 87.4077C54.2834 87.9782 54.879 88.3318 55.5179 88.3186C56.1595 88.3058 56.7382 87.9293 57.0095 87.3476C57.5542 86.1802 58.6996 85.9749 59.59 86.1726C60.6532 86.408 61.7887 87.3198 61.7887 89.1714Z" fill="#4F518C"/>
</svg>
