<svg width="108" height="108" viewBox="0 0 108 108" fill="none" xmlns="http://www.w3.org/2000/svg">
<path d="M47.1029 8.0835H26.6811C25.8086 8.0835 25.1017 8.79043 25.1017 9.66289V39.0192C25.1017 39.8917 25.8086 40.5986 26.6811 40.5986H47.1029C47.9753 40.5986 48.6823 39.8917 48.6823 39.0192V9.66289C48.6823 8.79043 47.9751 8.0835 47.1029 8.0835ZM45.5235 37.4398H28.2605V11.2423H45.5235V37.4398Z" fill="#4F518C"/>
<path d="M54.7609 18.4749H81.1389C82.0113 18.4749 82.7183 17.7679 82.7183 16.8955V9.66289C82.7183 8.79043 82.0113 8.0835 81.1389 8.0835H54.7609C53.8885 8.0835 53.1815 8.79043 53.1815 9.66289V16.8957C53.1815 17.7679 53.8885 18.4749 54.7609 18.4749ZM56.3403 11.2423H79.5595V15.3163H56.3403V11.2423Z" fill="#4F518C"/>
<path d="M54.7609 26.1334H81.1389C82.0113 26.1334 82.7183 25.4265 82.7183 24.554C82.7183 23.6815 82.0113 22.9746 81.1389 22.9746H54.7609C53.8885 22.9746 53.1815 23.6815 53.1815 24.554C53.1815 25.4265 53.8885 26.1334 54.7609 26.1334Z" fill="#4F518C"/>
<path d="M54.7609 32.9405H81.1389C82.0113 32.9405 82.7183 32.2336 82.7183 31.3611C82.7183 30.4887 82.0113 29.7817 81.1389 29.7817H54.7609C53.8885 29.7817 53.1815 30.4887 53.1815 31.3611C53.1815 32.2336 53.8885 32.9405 54.7609 32.9405Z" fill="#4F518C"/>
<path d="M54.7609 40.5985H81.1389C82.0113 40.5985 82.7183 39.8916 82.7183 39.0191C82.7183 38.1466 82.0113 37.4397 81.1389 37.4397H54.7609C53.8885 37.4397 53.1815 38.1466 53.1815 39.0191C53.1815 39.8916 53.8885 40.5985 54.7609 40.5985Z" fill="#4F518C"/>
<path d="M40.418 46.6773C40.418 47.5498 41.1249 48.2567 41.9974 48.2567H81.139C82.0114 48.2567 82.7184 47.5498 82.7184 46.6773C82.7184 45.8048 82.0114 45.0979 81.139 45.0979H41.9974C41.1249 45.0979 40.418 45.805 40.418 46.6773Z" fill="#4F518C"/>
<path d="M26.6811 48.2567H34.3393C35.2117 48.2567 35.9186 47.5498 35.9186 46.6773C35.9186 45.8048 35.2117 45.0979 34.3393 45.0979H26.6811C25.8086 45.0979 25.1017 45.8048 25.1017 46.6773C25.1017 47.5498 25.8088 48.2567 26.6811 48.2567Z" fill="#4F518C"/>
<path d="M48.0688 63.593H43.8057C42.9333 63.593 42.2263 64.3 42.2263 65.1724V79.849C42.2263 80.2691 42.3937 80.6717 42.6915 80.9683C42.9874 81.2629 43.3881 81.4284 43.8057 81.4284H43.8127C43.8131 81.4284 47.7329 81.4109 48.8132 81.4109C51.8623 81.4109 54.3432 78.9304 54.3432 75.8811C54.3432 74.06 53.4579 72.4423 52.0956 71.434C52.68 70.6207 53.0254 69.6248 53.0254 68.5494C53.0254 65.8166 50.8018 63.593 48.0688 63.593ZM48.0688 66.7518C49.06 66.7518 49.8666 67.5584 49.8666 68.5496C49.8666 69.5408 49.06 70.3471 48.0688 70.3471C47.7494 70.3471 47.142 70.349 46.4839 70.3514H45.3851V66.7518H48.0688ZM48.8132 78.2523C48.1861 78.2523 46.6057 78.258 45.3851 78.2631V73.5146C45.7429 73.5131 46.1253 73.5116 46.4922 73.5104H48.8132C50.1208 73.5104 51.1844 74.574 51.1844 75.8815C51.1844 77.1887 50.1208 78.2523 48.8132 78.2523Z" fill="#4F518C"/>
<path d="M17.9813 71.1447C16.1377 70.4647 14.4243 69.723 13.9423 69.5116C13.571 69.2269 13.3925 68.781 13.4615 68.2992C13.5057 67.9918 13.7252 67.2414 14.808 66.9153C17.012 66.2515 19.0286 67.8528 19.0821 67.8957C19.75 68.4508 20.7411 68.363 21.3006 67.6976C21.8618 67.0298 21.7757 66.0335 21.1079 65.4723C20.9735 65.3597 17.7758 62.7225 13.897 63.8906C11.967 64.4722 10.6022 65.9895 10.335 67.8505C10.085 69.5905 10.8393 71.2641 12.3027 72.2182C12.3724 72.2637 12.4457 72.3035 12.5217 72.3374C12.6061 72.3751 14.62 73.2716 16.8882 74.108C17.592 74.3677 19.204 75.1098 18.9753 76.3906C18.8104 77.3142 17.7124 78.2696 16.1604 78.2696C14.6307 78.2696 13.1562 77.6503 12.2163 76.6129C11.6303 75.9662 10.6317 75.9178 9.98538 76.5032C9.3391 77.0889 9.28982 78.0877 9.87567 78.7342C11.4047 80.4214 13.754 81.4286 16.1606 81.4286C19.1299 81.4286 21.6215 79.5435 22.0852 76.9461C22.4321 75.0011 21.5364 72.456 17.9813 71.1447Z" fill="#4F518C"/>
<path d="M26.8918 63.593C26.0193 63.593 25.3124 64.3 25.3124 65.1724V75.2715C25.3124 77.4233 26.304 79.1027 28.344 80.4064C29.4026 81.083 30.5983 81.4269 31.8976 81.4286H31.9077C33.0291 81.4286 34.0812 81.1852 35.0345 80.7048C38.0389 79.1918 38.6696 76.9094 38.6696 75.261V65.1724C38.6696 64.3 37.9627 63.593 37.0902 63.593C36.2178 63.593 35.5108 64.3 35.5108 65.1724V75.261C35.5108 76.0374 35.2954 77.0368 33.6137 77.8836C33.1051 78.1399 32.5311 78.2696 31.9075 78.2696C31.9056 78.2696 31.9035 78.2696 31.9018 78.2696C31.2039 78.2688 30.5966 78.0969 30.0449 77.7444C28.9273 77.0303 28.4714 76.3139 28.4714 75.2715V65.1724C28.4712 64.3002 27.7642 63.593 26.8918 63.593Z" fill="#4F518C"/>
<path d="M107.82 58.2586C107.82 55.0411 105.203 52.4233 101.987 52.4233H90.8019V1.57939C90.8019 0.706937 90.095 0 89.2225 0H18.5975C17.725 0 17.0181 0.706937 17.0181 1.57939V17.0349C17.0181 17.9074 17.725 18.6143 18.5975 18.6143C19.4699 18.6143 20.1769 17.9074 20.1769 17.0349V3.15879H87.6429V52.4233H85.783C84.9106 52.4233 84.2036 53.1302 84.2036 54.0027C84.2036 54.8751 84.9106 55.5821 85.783 55.5821H101.987C103.461 55.5821 104.661 56.7828 104.661 58.2586V84.517L93.9887 80.7673C94.1742 80.5085 94.2848 80.192 94.2848 79.8489V66.7517H96.7743C97.6468 66.7517 98.3537 66.0448 98.3537 65.1723C98.3537 64.2999 97.6468 63.5929 96.7743 63.5929H88.6691C87.7966 63.5929 87.0897 64.2999 87.0897 65.1723C87.0897 66.0448 87.7966 66.7517 88.6691 66.7517H91.126V79.7613L83.4628 77.0688V65.1721C83.4628 64.2997 82.7558 63.5927 81.8834 63.5927C81.0109 63.5927 80.304 64.2997 80.304 65.1721V75.959L76.7103 74.6963C76.3875 74.5828 76.0451 74.583 75.7298 74.6784L73.9034 65.1222C73.7303 64.2723 73.0044 63.6445 72.1383 63.5959C71.2724 63.5477 70.481 64.0895 70.2131 64.9144C70.2074 64.9325 70.2018 64.9504 70.1967 64.9687L67.3264 75.0372L64.351 64.9523C64.3456 64.9335 64.3397 64.9152 64.3336 64.8967C64.0575 64.0741 63.2608 63.5395 62.3943 63.598C61.5286 63.6559 60.8094 64.2917 60.6422 65.1616L58.0625 79.4539C57.9077 80.3122 58.478 81.1337 59.3364 81.2887C60.1939 81.4431 61.0164 80.8734 61.1712 80.0149L62.815 70.9079L65.5181 80.0698C65.5236 80.0888 65.5297 80.1075 65.5358 80.1261C65.798 80.9061 66.5249 81.4285 67.3473 81.4285H67.3572C68.1833 81.4243 68.9098 80.8936 69.1648 80.1079C69.1707 80.0898 69.1764 80.0715 69.1817 80.053L71.7917 70.8975L73.5372 80.0311C73.7009 80.888 74.5299 81.4506 75.3849 81.2857C75.6888 81.2276 75.9543 81.0851 76.1647 80.8884L79.1687 89.438H23.1834C22.3109 89.438 21.604 90.1449 21.604 91.0173C21.604 91.8898 22.3109 92.5967 23.1834 92.5967H80.2783L85.2561 106.764C85.4602 107.345 85.9829 107.754 86.5957 107.813C86.646 107.817 86.6965 107.82 86.7467 107.82C87.3039 107.82 87.8249 107.525 88.11 107.037L95.0909 95.0907L99.3591 92.5965H101.987C105.177 92.5965 107.776 90.0217 107.818 86.8244C107.818 86.8237 107.818 86.8231 107.818 86.8225C107.818 86.797 107.82 86.7719 107.82 86.7465V58.2586ZM93.1394 92.5727C92.905 92.7098 92.7098 92.905 92.5727 93.1394L87.1049 102.497L78.7675 78.7676L102.497 87.1049L93.1394 92.5727Z" fill="#4F518C"/>
<path d="M15.811 89.4379H5.83323C4.3585 89.4379 3.15879 88.2382 3.15879 86.7635V58.2586C3.15879 56.7826 4.3585 55.582 5.83323 55.582H78.398C79.2704 55.582 79.9774 54.8751 79.9774 54.0026C79.9774 53.1302 79.2704 52.4232 78.398 52.4232H20.1769V24.4136C20.1769 23.5412 19.4699 22.8342 18.5975 22.8342C17.725 22.8342 17.0181 23.5412 17.0181 24.4136V52.4232H5.83323C2.61674 52.4232 0 55.041 0 58.2586V86.7635C0 89.98 2.61674 92.5967 5.83323 92.5967H15.811C16.6835 92.5967 17.3904 91.8898 17.3904 91.0173C17.3904 90.1449 16.6835 89.4379 15.811 89.4379Z" fill="#4F518C"/>
</svg>
