<svg width="64" height="100" viewBox="0 0 64 100" fill="none" xmlns="http://www.w3.org/2000/svg">
<path d="M51.2947 24.2736C52.752 23.8617 54.747 23.2971 55.4482 21.2974C57.7843 14.8643 60.3836 9.58095 63.1722 5.5923C64.0648 4.3159 64.0396 2.68321 63.1089 1.43351C62.1811 0.18763 60.6293 -0.301415 59.1561 0.186104C46.7972 4.27622 37.0262 11.5341 30.1148 21.7567C24.3591 30.2696 21.8346 39.0419 20.7298 44.9028C19.9486 49.044 20.5689 53.4004 22.4762 57.1693L26.8364 65.786C26.4465 68.3784 26.2154 70.652 26.1505 72.4205H19.0102C16.256 72.4205 14.0152 74.6612 14.0152 77.4147C14.0152 79.9782 15.9561 82.0969 18.4456 82.3776C17.5697 82.8834 16.2232 83.3816 14.1548 83.7067C10.3714 84.3018 7.61185 87.471 7.5409 91.2712C7.5409 91.2849 7.54014 91.2987 7.54014 91.3116V91.3422C7.54014 91.3689 7.53937 91.3956 7.53937 91.4215V96.0938H1.95313C0.874329 96.0938 0 96.9681 0 98.0469C0 99.1257 0.874329 100 1.95313 100H58.0109C59.0897 100 59.964 99.1257 59.964 98.0469C59.964 96.9681 59.0897 96.0938 58.0109 96.0938H50.7851V91.4215C50.7851 91.3956 50.7851 91.3689 50.7843 91.3422C50.7843 91.3322 50.7843 91.3223 50.7843 91.3124C50.7843 91.2987 50.7836 91.2842 50.7836 91.2697C50.7119 87.4695 47.9523 84.3018 44.1696 83.7067C42.1013 83.3816 40.7547 82.8834 39.8789 82.3776C42.3683 82.0969 44.3093 79.9782 44.3093 77.4147C44.3093 74.6612 42.0685 72.4205 39.3143 72.4205H30.0507C30.1056 70.9717 30.2895 69.1208 30.5947 67.0013L40.5861 59.9449C42.9474 58.2771 44.7426 55.8456 45.6391 53.0975C47.2222 48.2483 49.7017 40.3763 52.5284 30.4069C53.2379 28.1364 51.6945 26.6029 50.7706 25.6851C50.4944 25.4104 50.0405 24.9595 49.9527 24.7497C49.9543 24.7436 49.9565 24.7367 49.9596 24.7284C50.2259 24.5758 50.885 24.3896 51.2947 24.2736ZM11.4456 96.0938V92.5873H46.8788V96.0938H11.4456ZM45.7558 88.681H12.5687C13.1409 88.1042 13.8985 87.7014 14.7621 87.5656C18.5501 86.9697 21.2372 85.6995 22.7478 83.7906C23.1262 83.3115 23.391 82.8422 23.5748 82.4089H34.7496C34.9335 82.8415 35.1982 83.3115 35.5767 83.7906C37.0873 85.6995 39.7736 86.9697 43.5623 87.5656C44.426 87.7014 45.1836 88.1042 45.7558 88.681ZM40.403 77.4147C40.403 78.0151 39.9147 78.5034 39.3151 78.5034H19.0094C18.4097 78.5034 17.9215 78.0151 17.9215 77.4147C17.9215 76.815 18.4097 76.3267 19.0094 76.3267H39.3151C39.9147 76.3267 40.403 76.815 40.403 77.4147ZM48.0172 28.4561C48.2796 28.7162 48.6641 29.0977 48.7816 29.3037C48.7809 29.3068 48.7793 29.3098 48.7786 29.3129C45.9656 39.2357 43.4998 47.0649 41.9258 51.8852C41.2888 53.8391 40.0124 55.5679 38.3332 56.7543L31.5361 61.5547C32.7141 55.6389 34.5528 48.7694 36.9393 42.781C37.339 41.7793 36.8508 40.6433 35.8483 40.2435C34.8465 39.8437 33.7105 40.3328 33.3107 41.3345C31.0051 47.1199 29.2092 53.6087 27.9907 59.4154L25.9613 55.4054C24.4408 52.4002 23.9464 48.9273 24.5682 45.626C25.6043 40.1283 27.9701 31.9038 33.3504 23.9448C39.5775 14.7346 48.3269 8.10923 59.3666 4.24037C56.6162 8.3816 54.068 13.6581 51.783 19.9455C51.5496 20.1423 50.7294 20.3743 50.232 20.5146C48.8213 20.9137 46.8964 21.4584 46.2937 23.3795C45.3881 25.8438 47.0955 27.5398 48.0172 28.4561Z" fill="#25CED1"/>
<path d="M38.0371 32.009C36.9583 32.009 36.084 32.8834 36.084 33.9622C36.084 35.041 36.9583 35.9153 38.0371 35.9153H38.0417C39.1205 35.9153 39.9925 35.041 39.9925 33.9622C39.9925 32.8834 39.1159 32.009 38.0371 32.009Z" fill="#25CED1"/>
</svg>
