<svg width="704" height="642" viewBox="0 0 704 642" fill="none" xmlns="http://www.w3.org/2000/svg">
<g filter="url(#filter0_d)">
<mask id="mask0" mask-type="alpha" maskUnits="userSpaceOnUse" x="50" y="46" width="604" height="542">
<path d="M78.8631 116.455C196.863 -11.1454 310.696 63.2879 352.863 116.455C406.245 52.0112 462.75 40.3006 509.697 48.4545C560.368 57.2555 599.905 89.198 612.363 102.953C612.363 102.953 627.431 118.021 639.35 146.455C653.455 180.101 663.679 230.742 639 299C635.586 308.443 631.847 317.956 627 328C619.768 345.638 608.04 365.276 594.5 385C566.167 426.271 529.269 467.72 503.5 491C425.693 561.293 352 587.5 352 587.5C352 587.5 282 556.5 244 525.5C204.966 500.14 190.172 483.816 145.5 430C121.196 400.721 97.9284 366.357 78.4999 327.5C74.1455 318.791 70.7454 310.787 67.5 302.5C23.4183 189.935 76.2205 119.312 78.8631 116.455Z" fill="white"/>
</mask>
<g mask="url(#mask0)">
<g filter="url(#filter1_d)">
<path d="M639.351 298.721C635.936 308.164 631.848 317.911 627 327.955C619.768 345.593 608.268 365.276 594.727 385L542.5 354.276L639.351 298.721Z" fill="#25CED1"/>
</g>
<g filter="url(#filter2_di)">
<path d="M403.5 434.008L503.363 491.002C529.132 467.722 566.395 426.271 594.727 385L542.5 354.276L403.5 434.008Z" fill="#E7D1FA"/>
<path d="M403.5 434.008L503.363 491.002C529.132 467.722 566.395 426.271 594.727 385L542.5 354.276L403.5 434.008Z" stroke="#E7D1FA"/>
</g>
<g filter="url(#filter3_di)">
<path d="M503.363 491.002C425.557 561.295 351.863 587.455 351.863 587.455L257.5 517.756L403.5 434.008L503.363 491.002Z" fill="#A1A9FE"/>
<path d="M503.363 491.002C425.557 561.295 351.863 587.455 351.863 587.455L257.5 517.756L403.5 434.008L503.363 491.002Z" stroke="#A1A9FE"/>
</g>
<g filter="url(#filter4_d)">
<path d="M351.863 587.455C351.863 587.455 282 556.5 244 525.5L257.5 517.756L351.863 587.455Z" fill="#25CED1"/>
<path d="M351.863 587.455C351.863 587.455 282 556.5 244 525.5L257.5 517.756L351.863 587.455Z" stroke="#25CED1"/>
</g>
<g filter="url(#filter5_di)">
<path d="M639.351 144.455L145.615 429.955C190.287 483.771 204.966 500.14 244 525.5L257.5 517.756L403.5 434.008L542.5 354.276L639.351 298.721C664.03 230.463 653.456 178.101 639.351 144.455Z" fill="#E7D1FA"/>
<path d="M639.351 144.455L145.615 429.955C190.287 483.771 204.966 500.14 244 525.5L257.5 517.756L403.5 434.008L542.5 354.276L639.351 298.721C664.03 230.463 653.456 178.101 639.351 144.455Z" stroke="#E7D1FA"/>
</g>
<g filter="url(#filter6_di)">
<path d="M78.8632 327.955C74.5088 319.246 70.7383 310.742 67.4929 302.455L509.697 46.4548C560.368 55.2558 599.905 87.1984 612.363 100.953C612.363 100.953 627.431 116.021 639.351 144.455L145.615 429.955C121.311 400.676 98.2917 366.812 78.8632 327.955Z" fill="#A1A9FE"/>
<path d="M78.8632 327.955C74.5088 319.246 70.7383 310.742 67.4929 302.455L509.697 46.4548C560.368 55.2558 599.905 87.1984 612.363 100.953C612.363 100.953 627.431 116.021 639.351 144.455L145.615 429.955C121.311 400.676 98.2917 366.812 78.8632 327.955Z" stroke="#A1A9FE"/>
</g>
<g filter="url(#filter7_di)">
<path d="M78.8632 114.455C196.863 -13.1454 310.697 61.2879 352.863 114.455C406.245 50.0112 462.75 38.3008 509.697 46.4547L67.4929 302.455C23.4113 189.89 76.2206 117.312 78.8632 114.455Z" fill="#25CED1"/>
<path d="M78.8632 114.455C196.863 -13.1454 310.697 61.2879 352.863 114.455C406.245 50.0112 462.75 38.3008 509.697 46.4547L67.4929 302.455C23.4113 189.89 76.2206 117.312 78.8632 114.455Z" stroke="#25CED1"/>
</g>
</g>
</g>
<defs>
<filter id="filter0_d" x="0.00561523" y="0" width="703.942" height="641.455" filterUnits="userSpaceOnUse" color-interpolation-filters="sRGB">
<feFlood flood-opacity="0" result="BackgroundImageFix"/>
<feColorMatrix in="SourceAlpha" type="matrix" values="0 0 0 0 0 0 0 0 0 0 0 0 0 0 0 0 0 0 127 0"/>
<feOffset dy="4"/>
<feGaussianBlur stdDeviation="25"/>
<feColorMatrix type="matrix" values="0 0 0 0 0 0 0 0 0 0 0 0 0 0 0 0 0 0 0.25 0"/>
<feBlend mode="normal" in2="BackgroundImageFix" result="effect1_dropShadow"/>
<feBlend mode="normal" in="SourceGraphic" in2="effect1_dropShadow" result="shape"/>
</filter>
<filter id="filter1_d" x="492.5" y="252.721" width="196.851" height="186.279" filterUnits="userSpaceOnUse" color-interpolation-filters="sRGB">
<feFlood flood-opacity="0" result="BackgroundImageFix"/>
<feColorMatrix in="SourceAlpha" type="matrix" values="0 0 0 0 0 0 0 0 0 0 0 0 0 0 0 0 0 0 127 0"/>
<feOffset dy="4"/>
<feGaussianBlur stdDeviation="25"/>
<feColorMatrix type="matrix" values="0 0 0 0 0 0 0 0 0 0 0 0 0 0 0 0 0 0 0.5 0"/>
<feBlend mode="normal" in2="BackgroundImageFix" result="effect1_dropShadow"/>
<feBlend mode="normal" in="SourceGraphic" in2="effect1_dropShadow" result="shape"/>
</filter>
<filter id="filter2_di" x="353.5" y="308.276" width="291.227" height="236.726" filterUnits="userSpaceOnUse" color-interpolation-filters="sRGB">
<feFlood flood-opacity="0" result="BackgroundImageFix"/>
<feColorMatrix in="SourceAlpha" type="matrix" values="0 0 0 0 0 0 0 0 0 0 0 0 0 0 0 0 0 0 127 0"/>
<feOffset dy="4"/>
<feGaussianBlur stdDeviation="25"/>
<feColorMatrix type="matrix" values="0 0 0 0 0 0 0 0 0 0 0 0 0 0 0 0 0 0 0.5 0"/>
<feBlend mode="normal" in2="BackgroundImageFix" result="effect1_dropShadow"/>
<feBlend mode="normal" in="SourceGraphic" in2="effect1_dropShadow" result="shape"/>
<feColorMatrix in="SourceAlpha" type="matrix" values="0 0 0 0 0 0 0 0 0 0 0 0 0 0 0 0 0 0 127 0" result="hardAlpha"/>
<feOffset dx="-27" dy="4"/>
<feGaussianBlur stdDeviation="25"/>
<feComposite in2="hardAlpha" operator="arithmetic" k2="-1" k3="1"/>
<feColorMatrix type="matrix" values="0 0 0 0 1 0 0 0 0 1 0 0 0 0 1 0 0 0 0.5 0"/>
<feBlend mode="normal" in2="shape" result="effect2_innerShadow"/>
</filter>
<filter id="filter3_di" x="207.5" y="388.008" width="345.863" height="253.446" filterUnits="userSpaceOnUse" color-interpolation-filters="sRGB">
<feFlood flood-opacity="0" result="BackgroundImageFix"/>
<feColorMatrix in="SourceAlpha" type="matrix" values="0 0 0 0 0 0 0 0 0 0 0 0 0 0 0 0 0 0 127 0"/>
<feOffset dy="4"/>
<feGaussianBlur stdDeviation="25"/>
<feColorMatrix type="matrix" values="0 0 0 0 0 0 0 0 0 0 0 0 0 0 0 0 0 0 0.5 0"/>
<feBlend mode="normal" in2="BackgroundImageFix" result="effect1_dropShadow"/>
<feBlend mode="normal" in="SourceGraphic" in2="effect1_dropShadow" result="shape"/>
<feColorMatrix in="SourceAlpha" type="matrix" values="0 0 0 0 0 0 0 0 0 0 0 0 0 0 0 0 0 0 127 0" result="hardAlpha"/>
<feOffset dx="-13" dy="4"/>
<feGaussianBlur stdDeviation="25"/>
<feComposite in2="hardAlpha" operator="arithmetic" k2="-1" k3="1"/>
<feColorMatrix type="matrix" values="0 0 0 0 1 0 0 0 0 1 0 0 0 0 1 0 0 0 0.5 0"/>
<feBlend mode="normal" in2="shape" result="effect2_innerShadow"/>
</filter>
<filter id="filter4_d" x="194" y="471.756" width="207.863" height="169.699" filterUnits="userSpaceOnUse" color-interpolation-filters="sRGB">
<feFlood flood-opacity="0" result="BackgroundImageFix"/>
<feColorMatrix in="SourceAlpha" type="matrix" values="0 0 0 0 0 0 0 0 0 0 0 0 0 0 0 0 0 0 127 0"/>
<feOffset dy="4"/>
<feGaussianBlur stdDeviation="25"/>
<feColorMatrix type="matrix" values="0 0 0 0 0 0 0 0 0 0 0 0 0 0 0 0 0 0 0.5 0"/>
<feBlend mode="normal" in2="BackgroundImageFix" result="effect1_dropShadow"/>
<feBlend mode="normal" in="SourceGraphic" in2="effect1_dropShadow" result="shape"/>
</filter>
<filter id="filter5_di" x="95.615" y="98.4548" width="608.541" height="481.045" filterUnits="userSpaceOnUse" color-interpolation-filters="sRGB">
<feFlood flood-opacity="0" result="BackgroundImageFix"/>
<feColorMatrix in="SourceAlpha" type="matrix" values="0 0 0 0 0 0 0 0 0 0 0 0 0 0 0 0 0 0 127 0"/>
<feOffset dy="4"/>
<feGaussianBlur stdDeviation="25"/>
<feColorMatrix type="matrix" values="0 0 0 0 0 0 0 0 0 0 0 0 0 0 0 0 0 0 0.5 0"/>
<feBlend mode="normal" in2="BackgroundImageFix" result="effect1_dropShadow"/>
<feBlend mode="normal" in="SourceGraphic" in2="effect1_dropShadow" result="shape"/>
<feColorMatrix in="SourceAlpha" type="matrix" values="0 0 0 0 0 0 0 0 0 0 0 0 0 0 0 0 0 0 127 0" result="hardAlpha"/>
<feOffset dx="-39" dy="4"/>
<feGaussianBlur stdDeviation="25"/>
<feComposite in2="hardAlpha" operator="arithmetic" k2="-1" k3="1"/>
<feColorMatrix type="matrix" values="0 0 0 0 1 0 0 0 0 1 0 0 0 0 1 0 0 0 0.5 0"/>
<feBlend mode="normal" in2="shape" result="effect2_innerShadow"/>
</filter>
<filter id="filter6_di" x="17.4929" y="0.454834" width="671.858" height="483.5" filterUnits="userSpaceOnUse" color-interpolation-filters="sRGB">
<feFlood flood-opacity="0" result="BackgroundImageFix"/>
<feColorMatrix in="SourceAlpha" type="matrix" values="0 0 0 0 0 0 0 0 0 0 0 0 0 0 0 0 0 0 127 0"/>
<feOffset dy="4"/>
<feGaussianBlur stdDeviation="25"/>
<feColorMatrix type="matrix" values="0 0 0 0 0 0 0 0 0 0 0 0 0 0 0 0 0 0 0.5 0"/>
<feBlend mode="normal" in2="BackgroundImageFix" result="effect1_dropShadow"/>
<feBlend mode="normal" in="SourceGraphic" in2="effect1_dropShadow" result="shape"/>
<feColorMatrix in="SourceAlpha" type="matrix" values="0 0 0 0 0 0 0 0 0 0 0 0 0 0 0 0 0 0 127 0" result="hardAlpha"/>
<feOffset dx="-28" dy="4"/>
<feGaussianBlur stdDeviation="25"/>
<feComposite in2="hardAlpha" operator="arithmetic" k2="-1" k3="1"/>
<feColorMatrix type="matrix" values="0 0 0 0 1 0 0 0 0 1 0 0 0 0 1 0 0 0 0.5 0"/>
<feBlend mode="normal" in2="shape" result="effect2_innerShadow"/>
</filter>
<filter id="filter7_di" x="0" y="-2" width="559.697" height="358.455" filterUnits="userSpaceOnUse" color-interpolation-filters="sRGB">
<feFlood flood-opacity="0" result="BackgroundImageFix"/>
<feColorMatrix in="SourceAlpha" type="matrix" values="0 0 0 0 0 0 0 0 0 0 0 0 0 0 0 0 0 0 127 0"/>
<feOffset dy="4"/>
<feGaussianBlur stdDeviation="25"/>
<feColorMatrix type="matrix" values="0 0 0 0 0 0 0 0 0 0 0 0 0 0 0 0 0 0 0.5 0"/>
<feBlend mode="normal" in2="BackgroundImageFix" result="effect1_dropShadow"/>
<feBlend mode="normal" in="SourceGraphic" in2="effect1_dropShadow" result="shape"/>
<feColorMatrix in="SourceAlpha" type="matrix" values="0 0 0 0 0 0 0 0 0 0 0 0 0 0 0 0 0 0 127 0" result="hardAlpha"/>
<feOffset dx="-29" dy="9"/>
<feGaussianBlur stdDeviation="25"/>
<feComposite in2="hardAlpha" operator="arithmetic" k2="-1" k3="1"/>
<feColorMatrix type="matrix" values="0 0 0 0 1 0 0 0 0 1 0 0 0 0 1 0 0 0 0.5 0"/>
<feBlend mode="normal" in2="shape" result="effect2_innerShadow"/>
</filter>
</defs>
</svg>
