<svg xmlns="http://www.w3.org/2000/svg" fill="none" viewBox="0 0 1440 341.43">
<path d="M0 58.5499L47.9667 78.7249C95.9333 98.8999 191.867 139.25 287.8 179.6C383.733 219.95 479.667 260.3 575.6 233.442C671.533 206.08 767.467 112.77 863.4 58.5499C959.333 4.32954 1055.27 -8.27984 1151.2 4.70782C1247.13 18.1999 1343.07 58.5499 1391.03 78.7249L1439 98.8999V341H1391.03C1343.07 341 1247.13 341 1151.2 341C1055.27 341 959.333 341 863.4 341C767.467 341 671.533 341 575.6 341C479.667 341 383.733 341 287.8 341C191.867 341 95.9333 341 47.9667 341H0V58.5499Z" fill="#25CED1"/>
<path d="M0 117.434L48 133.434C96 149.434 192 181.434 288 213.434C384 245.434 480 277.434 576 256.134C672 234.434 768 160.434 864 117.434C960 74.4336 1056 64.4336 1152 74.7336C1248 85.4336 1344 117.434 1392 133.434L1440 149.434V341.434H1392C1344 341.434 1248 341.434 1152 341.434C1056 341.434 960 341.434 864 341.434C768 341.434 672 341.434 576 341.434C480 341.434 384 341.434 288 341.434C192 341.434 96 341.434 48 341.434H0V117.434Z" fill="#F7EDFF"/>
</svg>