<svg width="1440" height="903" viewBox="0 0 1440 903" fill="none" xmlns="http://www.w3.org/2000/svg">
<rect y="216" width="1440" height="687" fill="#F7EDFF"/>
<path fill-rule="evenodd" clip-rule="evenodd" d="M0 176.138L39.6 182.13C80.4 188.123 159.6 200.107 240 182.13C320.4 164.153 399.6 116.215 480 80.2606C560.4 44.3066 639.6 20.3372 720 8.35258C800.4 -3.63209 879.6 -3.63209 960 14.3449C1040.4 32.3219 1119.6 68.2759 1200 92.2453C1280.4 116.215 1359.6 128.199 1400.4 134.192L1440 140.184V284H1400.4C1359.6 284 1280.4 284 1200 284C1119.6 284 1040.4 284 960 284C879.6 284 800.4 284 720 284C639.6 284 560.4 284 480 284C399.6 284 320.4 284 240 284C159.6 284 80.4 284 39.6 284H0V176.138Z" fill="#F7EDFF"/>
</svg>
